<?xml version="1.0" encoding="utf-8"?>
<!-- Generator: Adobe Illustrator 29.8.1, SVG Export Plug-In . SVG Version: 9.03 Build 0)  -->
<svg version="1.1" xmlns="http://www.w3.org/2000/svg" xmlns:xlink="http://www.w3.org/1999/xlink" x="0px" y="0px"
	 viewBox="0 0 3000 3000" style="enable-background:new 0 0 3000 3000;" xml:space="preserve">
<style type="text/css">
	.st0{fill:#FEE5BE;}
	.st1{fill:#54B13A;}
	.st2{opacity:0.3;fill:#1D1D1B;}
	.st3{opacity:0.25;fill:#9E3500;}
	.st4{fill:#6CD331;}
	.st5{opacity:0.5;fill:#FFFF5F;}
	.st6{opacity:0.6;fill:#FFFF5F;}
	.st7{opacity:0.6;fill:#1A7748;}
	.st8{fill:none;stroke:#1D1D1B;stroke-width:3;stroke-miterlimit:10;}
	.st9{fill:#1D1D1B;}
	.st10{opacity:0.53;fill:url(#SVGID_1_);}
	.st11{opacity:0.53;fill:url(#SVGID_00000064317639379488849880000015146238969719091359_);}
	.st12{fill:#FFFFFF;}
	.st13{fill:url(#SVGID_00000110467576499467688320000003867568819573699223_);}
	.st14{fill:url(#SVGID_00000103247471393272021500000009736132230163960237_);}
	.st15{fill:url(#SVGID_00000070840258755019988850000004073400526575883449_);}
	.st16{fill:url(#SVGID_00000054225275118901816230000009354529860135153820_);}
	.st17{opacity:0.25;fill:#002111;}
	.st18{opacity:0.25;fill:#19412F;}
	.st19{opacity:0.7;fill:#FF9A7B;}
	.st20{opacity:0.7;fill:#6D503A;}
	.st21{opacity:0.5;fill:#FCFAE6;}
</style>
<g id="Layer_19">
	<path class="st0" d="M1254.7,1555c-40,5.1-79.9,10.1-119.9,15.2c-16.6,4-41.4,11.9-67.6,28.7c-16.7,10.6-56,39-80.8,91.8
		c-13.5,28.7-18.4,55.7-20.1,76.3c-0.3,7.9-0.4,16.1-0.3,24.6c0.5,30.6,4.1,53,5.1,59.8c10.3,68.9,7.4,148.3,30.9,259.6
		c6.6,31.2,17.5,75.6,36,128.3c7.8,21.7,15.7,43.3,23.5,65c4.4,11.9,10.4,28.4,18,47.7c5.2,13.3,25,63.7,55.6,130.7
		c18.3,40.2,41.7,88.7,70.4,143.2c12.9,3.1,34,6.3,56.7-0.8c65.3-20.3,96.1-109.6,92.7-176.9c-2.3-45.4-19.9-77.1-43-117.4
		c-22.2-38.8-63.3-98.1-136.6-154.2c-18.9-23.4-51.2-70.7-57.5-136.2c-5.5-57,11.1-102.9,22-133.1c11.1-30.8,24.3-54.8,34.3-71.1
		c11.6-20.2,24-45.8,34.2-76.6c7.4-22.6,12.1-43.6,15.2-61.9C1233.9,1650.2,1244.3,1602.6,1254.7,1555z"/>
	<path class="st1" d="M1289,1551.9c-11.4,1-22.9,2.1-34.3,3.1c-0.8,5.7-1.6,11.3-2.5,17c-0.6,4.7-1.3,9.4-1.9,14.1
		c-8.1,23.7-13.3,43.3-16.4,56.3c-6.5,27.1-8,41.9-18.3,87.5c-4.7,21.1-6.4,26.9-7.3,29.7c-7.6,25.4-17.1,45.1-24.3,58.2
		c-14,21.3-30.9,51.3-44.2,89.5c-11.4,32.8-25.1,73.4-21.1,127c3.5,47.7,19.3,82.8,26.3,97.1c12.4,25,26.7,43.8,38,56.6
		c35.4,93.3,70.8,186.7,106.2,280c-1.9,1.4-6.6,5.3-8.9,12.1c-3.5,10.6,1.8,19.6,2.7,21c-0.3,4.4-1,9.8-2.8,15.7
		c-3.3,10.9-8.6,18.8-12.5,23.7c-8.4,13.8-17.8,28.2-28.4,42.9c-5.8,8.1-11.7,15.9-17.5,23.2c-22,24.5-36.3,46.6-45.4,62.2
		c-11.6,20.1-15,30.5-35.2,71.6c-14.2,28.9-24.3,47-28.2,55.1c-21.2,44.4-48.8,111.9-70.2,204.3c340.1,0.9,680.2,1.8,1020.2,2.7
		c-12.7-62.6-32.7-135.7-64.8-214.4c-20.3-49.9-42.3-94.3-64.1-133.3c-8.7-16.5-18.3-33.7-28.8-51.2c-9.8-16.4-19.7-31.9-29.4-46.5
		c-0.9-12.6-1.9-25.2-2.8-37.9c5-4.9,6.6-12.5,3.9-19c-2.7-6.6-9.3-10.9-16.5-10.6c5.1-28,11.6-57.6,19.8-88.5
		c5.2-19.6,10.7-38.3,16.5-56.2c8-27.7,15.2-58.7,20.2-92.9c2.2-15.1,3.8-29.7,5-43.7c28.1-29.9,70.5-82.5,98.2-158.7
		c13-35.7,58.2-171.1-2.8-320.3c-15.2-37.2-49.1-102.8-126.4-164.1c-12.3-1.8-24.7-3.7-37-5.5c-44.2,25.3-137.5,70.9-263.7,73.6
		C1441.3,1636.7,1332.5,1578.4,1289,1551.9z"/>
	<path class="st0" d="M1442.7,1437.4c0.5,13.5,1,27.1,1.5,40.6c4.9,5.2,49.8,51.3,117.8,43.8c62-6.9,95-53.1,99.9-60.1
		c-0.2-11.5-0.3-22.9-0.5-34.4c-24-7.3-60-15.3-104-14.1C1507.1,1414.6,1467.4,1427.3,1442.7,1437.4z"/>
	<path class="st0" d="M1421.5,1516.8c-7.9-0.6-15.8-1.2-23.7-1.8c-5.3,2.2-11.4,4.4-18.1,6.3c-6,1.7-11.6,2.9-16.8,3.8
		c-21.1,8.6-42.2,17.2-63.3,25.8c-4.5,0.4-8.9,0.7-13.4,1.1c-7.2,37.3-14.9,75.1-23.1,113.5c-8.6,40.3-17.5,79.9-26.6,118.6
		c37.9,20.7,67.3,39.2,87.6,52.6c15.6,10.3,34.7,23.4,63.9,41.1c24.7,15,38.8,22.4,43.7,25c7.6,4,9.8,4.9,29.4,15
		c16.1,8.3,23.2,12.1,31.9,17.1c8.3,4.8,13.1,7.6,19.8,12.1c6.2,4.2,8.1,5.9,20.3,14.6c11.9,8.5,13.9,9.6,16,10.5
		c4.8,2.3,11.5,5.4,20.8,5.4c1.9,0,8.5-0.1,16.3-3.3c9.1-3.7,14.4-9.2,18.6-13.4c8.9-8.8,19.5-15.6,28.8-24
		c15-13.6,31.2-24.5,62.2-45.5c22.5-15.2,67.9-44.8,129.9-77c24.8-12.9,46.1-23,61.7-30.1c-4.7-50.3-11.5-103.1-20.9-158.1
		c-3.9-22.7-8.1-44.8-12.5-66.4c-11.7-2.2-24.2-5.1-37.3-8.8c-9.7-2.7-18.9-5.7-27.6-8.7c-10.8-2.5-21.6-5-32.4-7.5
		c-11.3-2.2-23.5-5.1-36.3-8.8c-12-3.5-23.2-7.3-33.3-11.2c-7,8.1-53.3,60-130.6,61.4C1477.1,1577.6,1428.4,1524.6,1421.5,1516.8z"
		/>
	<path class="st1" d="M1421.5,1516.8c7.6-12.9,15.1-25.9,22.7-38.8c5.8,6.2,45.4,46.9,107.7,44.5c68.3-2.6,105.9-54.8,110-60.8
		c8.4,17.7,16.8,35.4,25.3,53.1c-7,8.1-53.3,60-130.6,61.4C1477.1,1577.6,1428.4,1524.6,1421.5,1516.8z"/>
	<path class="st0" d="M1860.5,2489.8c10.8-54,22-96.5,30.5-126c6.7-23.2,14.3-47.7,21.2-83.7c5.4-28.4,8.1-52.1,9.5-68.1
		c23.6-24.9,76.9-88.4,81.7-177.6c3-55.2-13.5-103.1-22.3-128.4c-13.5-39.1-30.5-69.4-43.8-90c-15.4-83.5-30.8-167.1-46.3-250.6
		c28.4,4.1,56.8,8.1,85.1,12.2c8.8-1.1,70.4-8,116.7,36.7c27.2,26.2,35.7,57.3,38.5,70.9c4.7,16.6,10.8,41.5,14.1,72.3
		c5.2,48.2,0.8,84.9-1.6,104.8c-23.3,197.6-16.1,180.5-26,235.5c-16.1,89.5-35.8,158.3-46,191.8c-36,118.8-75.8,202.6-85.3,222.3
		c-23.8,49.4-46.8,89.9-65,119.7c-2.2-3.6-7.8-12.6-10-16.3c-11.9-19.3-23.8-38.6-35.6-57.9c-0.9-12.6-1.9-25.2-2.8-37.9
		c5.6-3.1,6.7-6.6,7-7.7C1881.9,2504.6,1874.5,2494.6,1860.5,2489.8z"/>
</g>
<g id="Layer_20">
	<path class="st2" d="M1165.6,1852c-20.4,47.6-22.2,87.4-21.4,110c0.9,24.3,2,46.8,17,68.6c14.7,21.3,35.1,30.8,54.6,40
		c14.5,6.8,34.9,14.2,72.3,19.3c39.1,5.2,66.3,3.7,96.7,2.9c0,0,59.9-1.6,134,1.3c87.3,3.5,91,11.5,152,9.9
		c49-1.3,87.3-7.6,113.4-13.1c46.7-9.9,85.6-18.5,124.9-47.7c20.7-15.4,41.1-30.5,51.5-58.6c16.3-44-4.2-86.3-15.6-109.6
		c-11.2-23-24.9-51.3-50.3-56.7c-14-3-21.7,3.1-55.9,10.6c-22,4.8-40.3,7-52.5,8.1c33.7-17.5,67.4-35,101.1-52.5
		c-3.9-45-9.6-92.6-17.9-142.6c-4.7-28.4-9.9-55.7-15.5-82c12.3,1.8,24.7,3.7,37,5.5c15.4,83.5,30.8,167.1,46.3,250.6
		c16.4,24.9,38,63.6,52.1,114.6c7.9,28.5,16.8,60.6,13.9,103.8c-5,76.5-43.1,130.1-58.5,149.6c-9.3,11.8-18,20.7-24.3,26.7
		c-1.5,32.2-5.7,57.9-9.3,75.6c-3.3,16.2-9.5,38.4-21.8,82.9c-8.5,30.5-9.1,32-12.4,44.7c-8.1,31.8-13,58-15.8,75.5
		c7,0.2,13.2,4.6,15.8,11.1c2.6,6.5,1.1,14-3.9,19c0.9,12.5,1.9,25,2.8,37.5c9.7,15.1,22,34.8,35.6,58.3
		c27.4,47.1,45.5,83.7,49.6,92.1c23,46.8,37.7,83.8,42,94.7c13.7,34.8,31.9,85.5,47.8,148.2c5.5,21.6,9.5,39.7,12.1,52.6
		c-23.1,1-46.1,2-69.2,3c-18.1-49.4-30.2-90.2-38-119.7c-5.6-21-10.8-42.7-18.3-42.7c-8.1,0-13,25.5-20.2,49
		c-8.7,28.3-24.9,66.7-57.7,109.9c-32.5-0.1-65-0.2-97.4-0.3c13.6-23.1,30.4-56.9,41.6-100c23.3-89.8,13.1-184.6-5.7-187.8
		c-10-1.7-20.2,23.1-27.3,20c-8.3-3.6-2.3-40.7,0-55.2c3.2-19.8,5.9-24.6,2.3-29.5c-6.5-8.7-22.9-3.5-57.6,0.1
		c-30.8,3.3-64,4.1-64.6,0.4c-0.6-3.3,26.5-5.6,55.3-24.7c24.2-16.1,44.4-40.5,40.3-46.4c-4.9-7-39.2,20-89.1,32
		c-88.8,21.3-170.6-18.6-170.1-20.9c0.3-1.6,42.4,16.4,101.5,9.7c78.7-8.8,134.2-55.4,132.6-58.6c-1.2-2.5-37.5,21.9-94.1,24
		c-37.8,1.4-70-7.5-69.9-12.3c0.3-6.1,53.3,5.5,103.6-23.3c29.1-16.7,44.1-39.3,67.3-74.6c37.1-56.2,56.7-86,49-118.4
		c-11.9-50.1-80.3-71.6-123.5-85.2c-21.3-6.7-80.6-24.6-147.2-6.6c-29,7.8-59.2,22.4-80.8,32.9c-47.2,22.8-46.1,28.9-66.7,33.4
		c-55.9,12.3-96.3-25.6-109.7-10.6c-8.6,9.6,2.1,31.5,19.3,66.1c22.1,44.3,40.2,80.8,78.9,114.1c45.1,38.8,90.8,49.9,89.3,53.7
		c-1.3,3.2-33.6-4.8-65.4-18.3c-39.7-16.9-61.6-35.2-63.7-32.5c-2.1,2.7,17.9,24.7,44.2,43.9c40,29.2,75.7,38.3,74.6,41.4
		c-0.9,2.7-29.1-3.4-54.6-11.8c-22-7.2-39.5-15.2-51.4-21.3c-5.6,5.8-13.8,14.8-22.3,26.8c-14.9,20.8-22.6,31.7-20.5,43.2
		c3.8,20.3,35.3,27.3,33.3,33.4c-1.5,4.5-19.9,3.6-36.3-0.9c-25.1-6.8-42.6-21.3-52.8-31.7c8.7-10.6,17.6-22.5,26.5-35.5
		c13.4-19.8,24.2-38.8,32.8-56.2c1-2.2,2.1-5.6,2.3-9.9c0.3-6.8-2.1-12-3.4-14.3c-0.3-2.2-0.7-6.5,1.1-11.4c2.3-6.4,6.7-10,8.5-11.3
		c-35.9-94.4-71.9-188.8-107.8-283.2c-10.3-11.4-23.7-28.3-35.6-51.1c-6.3-12.1-23.6-47.7-27.5-97.4c-2.9-37.7,3.2-66.1,7.5-85.5
		C1131.8,1926.5,1142.6,1891,1165.6,1852z"/>
	<path class="st2" d="M1643.3,2064.4c-0.1,2.5-38.2,4.5-79,1.8c-24.8-1.6-45.7-4.6-62.2-7.5c-46.3-8.2-104.1-23.8-103.1-30
		c0.6-3.4,25.2-2.6,74.4-0.8c33.8,1.2,59.1,2.8,96.6,5.2c79.2,5.3,93.6,6.7,93.6,8.5c0,4.4-86.4,6-86.5,11.5
		C1576.9,2058,1643.4,2061,1643.3,2064.4z"/>
	<path class="st3" d="M1902.6,1625.1c5.2-1.5,12.9-4.2,21.4-9.1c15.5-8.8,19.8-16.8,30.3-23.2c8-4.9,20.8-9.6,41.3-7.5
		c-11.7-5.3-26.3-10.7-43.6-14.6c-24-5.4-45.1-6.1-61-5.3C1894.9,1585.3,1898.8,1605.2,1902.6,1625.1z"/>
	<path class="st3" d="M1866.5,1629.4c-7.4-4-17.9-9.1-31-13.6c-41.2-14-76.5-11-95-9.3c-16.1,1.5-41.4,4.1-70.9,16.5
		c-32.9,13.8-41,27.1-67.6,28.7c-16.4,1-29.1-3.1-47.4-8.9c-19.8-6.4-31-13-56-26.6c-42.3-22.9-63.5-34.4-71.3-36.1
		c-25.4-5.7-22.7,3.2-86.9,0.6c-9.3-0.4-24.3-1.2-25.7,3.5c-1.1,3.6,6.6,9,13,13c-7.1-2.1-19.3-4.6-28.1,1.8
		c-6.2,4.5-8,11.7-8.8,14.5c-8.5,31.8-34.1,87.2-35.5,86.9c-1-0.2,5.7-34.7,30.7-148.2c8.9-0.1,20.4-1.2,33.3-4.9
		c20-5.7,34.6-15.2,43.5-22.1c12.2-3.1,24.4-6.2,36.5-9.3c7.6,0.6,15.2,1.2,22.8,1.9c7.3,7.9,55.4,58.8,133.4,57.8
		c77.6-1,124.3-52.5,131.4-60.6c23.1,6.5,46.2,13,69.3,19.5c32.6,8.5,65.1,17.1,97.7,25.6
		C1858.2,1583.1,1862.4,1606.3,1866.5,1629.4z"/>
	<path class="st3" d="M1539.6,1966.7c0.9-16.3,0.4-39-6.7-64.4c-21.7-78.2-87.3-118.8-82.9-124.1c3.4-4.1,46.7,14.8,76.8,54.7
		c42.6,56.5,34.9,123.6,31.9,143.2C1552.3,1972.9,1545.9,1969.8,1539.6,1966.7z"/>
	<path class="st3" d="M1918.4,1713.3c12.5,25.4,18.8,34.3,21.1,33.4c3.5-1.3-2.4-23.5,0.1-24.3c3-0.9,14.1,29.3,14.1,29.3
		c11.4,30.9,21.2,57.9,28.2,89.2c18.5,83.5,17.7,206,17.6,212.5c2.3,18.2,4.2,47-2.3,81c-7.4,38.8-20.7,57.6-42.3,110.3
		c-12.7,31.1-24.9,61-34,98.6c-10.7,44-22.9,97-5.9,157.3c9.8,34.7,26,60.3,37.3,75.6c-10.9,17.1-21.7,34.1-32.6,51.2
		c-14.6-23.5-29.1-47.1-43.7-70.6c-0.9-12.5-1.9-25-2.8-37.5c5-5,6.5-12.5,3.9-19c-2.6-6.5-8.8-10.8-15.8-11.1
		c7.3-44.3,16.2-79.5,23-103.7c11-38.9,19.1-58,26.6-95c6.8-33.5,8.9-61.6,9.7-80c15-15.1,34.6-38.1,51.4-69.7
		c17.8-33.6,25.8-64.4,29.7-86.1c2.8-27.9,1.7-51.1,0-67.8c-6.8-66-32.1-114.4-44.9-138.3c-7.5-14-14.5-25.2-19.5-32.9
		C1931,1781.7,1924.7,1747.5,1918.4,1713.3z"/>
	<path class="st3" d="M1194.6,1781.5c0-28.3-17.3-55-25-53.2c-7.8,1.8-0.1,31.2-11,75.1c-8,32.4-20.8,51.5-28.2,65.7
		c-16,30.8-28.7,81.3-11.6,167.2c-1-17.7-0.8-42.6,4.8-71.8c1.5-7.8,4.5-21.5,11.5-42.3c8.4-24.8,22.9-60.7,48.5-102.8
		C1188,1812.3,1194.5,1798.8,1194.6,1781.5z"/>
	<path class="st3" d="M1124.1,2073.7c-0.5,19.2,0.8,47.4,10.4,79.3c7.5,25,16.1,38.8,26.6,59c25.5,48.8,37.5,88.7,61.6,168.5
		c17.7,58.5,17.7,71,13.6,84c-13,41.2-58.6,60.6-78.5,67.7c15.9,31.3,31.8,62.5,47.7,93.8c12.7-13.6,26.6-30.3,40.2-50.3
		c17.2-25.6,29.3-49.9,37.8-70.4c-1-1.7-7.3-13.3-2.3-25.8c2.3-5.8,6.2-9.4,8.5-11.3c-35.9-94.4-71.9-188.8-107.8-283.2
		c-10.8-12-24-28.9-35.6-51.1C1134.3,2110.9,1127.8,2089.7,1124.1,2073.7z"/>
</g>
<g id="Layer_8">
	<path class="st4" d="M2154.6,1246.1c-1.1-7.6-3.6-19.8-32.1-71.6c-19-34.4-36.4-62.6-62.2-103.1c-11.4-18-26.9-42.2-45.6-70.9
		c-4.3-73.3-20.9-187.6-83-303c-23.7-44.1-60.1-110-133.8-162.2c-30.1-21.3-56.7-33.4-68.6-38.5c-72.4-31-138.2-31.7-175.9-29.1
		c-23.1-6.4-60.1-13.6-104.5-8.5c-14.7,1.7-63,8.5-128.7,49.8C1207.3,579.9,1153,683.5,1132,724.8c-21,41.3-48.9,107.7-61.7,195.9
		c-10.4,14-20.8,28-31.2,42c-25.7,36.7-40.3,69.9-48.7,93.2c-9.7,26.9-16.4,45.9-14.6,71.4c2.4,34.1,18.5,59.3,28.3,72.1
		c5.3-8.1,10.6-16.2,15.9-24.3c-21.5-26.2-25.2-50.3-26.1-61.1c-2.4-29.8,9.8-52.8,24.5-80.8c13.2-25,27.7-43.4,38.2-55.4
		c3.6,45.7,1.2,83-2,109.2c-3.9,32.9-9,48.7-15.1,62.2c-10.8,23.7-25.2,40.2-35.4,50.3c-15.3,13.6-35.3,34.9-51.2,65.3
		c-2.5,4.9-14.1,27.4-21.2,59.8c-5.6,25.5-9.3,42.2-4.7,63.8c2.3,10.7,9,42.6,37.2,58.6c13,7.3,25.8,8.6,33.7,8.7
		c4.7,31,15.9,52.3,23.6,64.3c6.7,10.4,12.2,18.9,22.7,25.4c24.5,15.2,53.8,5.7,61.4,3c-5-1.5-56.6-17.6-74.1-69.7
		c-12.7-37.8,0.7-70.4,4.4-78.5c0.8,32.8,11.1,51.7,19.1,62.2c1.8,2.4,4.5,5.6,25.2,26c13.1,12.9,24,23.4,31.3,30.4
		c3.5,2.9,18.3,15.6,21.6,37.9c3.5,23.7-8.4,40.9-10.8,44.3c14.9,1.4,28.8-5.2,35.7-16.8c6.2-10.5,4.5-21.4,3.8-24.7
		c5.4,5.6,22.3,21.6,49.6,25.9c31.8,5,55.7-9.3,61.5-13.1c-9.9,0-19.8-0.1-29.7-0.1c-6.5-8.6-15.5-22.4-21.4-41.4
		c-5.2-16.6-6.2-31.3-6.1-41.4c10,13.5,30.7,37.7,65.2,54.2c22,10.5,42.1,14.4,56.3,15.9c-7.6-8.1-15.2-16.3-22.9-24.4
		c8.3,5.2,21.4,12.1,38.8,16.2c17.2,4,31.9,3.8,41.6,2.8c-10.5-6.8-33.7-23.7-48.8-54.9c-18.4-38.1-13-73.3-10.7-85.1
		c2.2,15.2,10.7,60.9,49.8,91.9c11.2,8.9,22.6,14.7,32.4,18.6c0.9,0.8,1.7,1.6,2.6,2.4c0.4-3.1,0.9-6.5,1.6-10
		c1.3-6.4,3.1-12,5-16.8c3.2-11.2,6-24.9,7.1-40.7c0.6-8.9,0.5-17.1,0.1-24.5c5.8,5.4,10.5,7.7,13.9,8.8c1.4,0.4,4.3,1.2,7.9,3.2
		c2.8,1.6,2.6,2,5.3,3.6c3.4,2,5,2.1,10.8,4.4c1.6,0.6,4,1.6,6.9,3c2,0.9,4.3,1.8,6.9,2.9c3.8,1.6,6.9,2.7,8.4,3.3
		c5.9,2.2,6.5,2.3,9.8,3.6c7.2,2.8,6.7,3.4,11.1,5c3.8,1.3,8.4,2,17.5,3.1c3.8,0.5,7.9,1,12.3,1.4c38.9-16.6,77.8-33.2,116.7-49.8
		c0.9,8.8,2.3,18.3,4.5,28.4c5.8,26.5,15.3,48.3,24.3,64.9c11.6-3.1,45.9-13.7,73-47.3c26.6-32.9,30.1-67.9,30.8-80
		c2.8,19.8,6.7,68-20.4,116c-9.9,17.5-21.5,30.7-31.7,40.3c15.9,0.3,46.2-1.5,77.3-19.3c13.4-7.7,23.7-16.4,31.3-24.1
		c13.9-8.1,33.2-21.6,51.7-42.6c16.3-18.5,26.5-36.6,32.9-50.2c2.8,11.1,7.6,36.6-1.8,66.4c-7,22-18.9,37.1-26.3,45.1
		c19.1-8.1,85.9-39.4,122.3-115.3c22.8-47.6,23.6-91.5,22.3-114.4c5.8,16.4,22.5,70-0.2,129.9c-12.5,32.8-32,54.8-44.9,67.1
		c10.3-2,30.8-7.5,48.7-24.5c17.1-16.2,23.1-34.3,28.3-50.5c9.6-29.3,8.7-54.1,7.6-78.5c-1-22.7-3.9-38.9-7.6-59.1
		c-8.1-43.9-18.6-77.7-33.6-125.2c-6.9-22-13-40-17.1-52.1c11.3,11.4,26.6,28.3,42.7,50.5c18.7,25.8,30,41.5,38.1,66
		c13.1,39.9,7.8,73.9,6.1,83c-5.6,30.8-18.6,53.1-26.9,65.2c-1.6,11.1-3.3,22.1-4.9,33.2c13.9-11.4,37.2-33.6,52.7-68.7
		C2146.7,1317.2,2160.2,1284.6,2154.6,1246.1z"/>
	<path class="st0" d="M1922.3,1118.9c-9.8,19.4-20.7,39.2-32.8,59.5c-3.5,5.9-7.1,11.7-10.7,17.3c4.7-16.3,9-34.6,12.3-54.8
		c2.4-14.5,3.9-28.2,4.9-40.9c-10.3,15.9-23.9,33.9-41.7,52.1c-31,31.6-62.9,51.6-87,64c14.1-15.5,30.4-36.7,44.4-64.2
		c26.1-51.3,31.2-99.2,31.8-127.9c-28.2-24.9-59.6-56.3-90.5-95.2c-43.9-55.2-73.6-108.6-93.7-152.3c1.7,25.8,1.8,79.4-25.6,138.8
		c-25.2,54.5-61.5,87.7-81.5,103.6c9.4-12.7,20-29.4,28.9-50.4c14.5-34.1,18.4-65,19.2-86c-12.9,36.7-35.9,85.3-77.9,131.1
		c-12.1,13.1-24.2,24.5-36,34.3c2.5-10.3,5.4-26.1,4.3-45.4c-1.1-18.9-5.4-33.1-10.7-50c-7.1-22.8-11.1-27.6-17.7-46.3
		c-4.8-13.7-10.8-34.5-13.9-61.7c-2.5,22.1-3.7,50.7,0.5,83.7c3.4,26.9,9.6,49.9,15.8,68.3c-15.4-21.8-35-54.7-48.5-98.3
		c-16.9-54.8-16.6-102.3-14.1-131.9c-17.9,45.2-42,97-74.6,152c-31.7,53.6-64.7,98.6-95,135.4c1.1,20,4.6,46.2,14.9,75.2
		c18.2,51.5,48.2,85.8,67,104.2c-8.5-1.6-19.6-4.6-31.8-10.4c-10.7-5.2-19.1-11.1-25.3-16.1c2.9,10.7,6.5,22.1,11,34
		c7.2,19.2,15.2,36,23.2,50.3c17.2,31.2,36.2,55,51.8,71.9c23.2,25.2,46.4,43.6,65.4,56.6c0.1,0.3,0.3,0.7,0.4,1
		c3.4,1.2,6.6,3.1,9.2,5.6c2.2,1.3,4.4,2.7,6.7,4c6.5,3.9,13.1,7.8,19.6,11.5c6.9,3.7,16.1,8.3,27.1,13.2
		c7.1,3.2,16.7,7.4,29.4,11.9c16.8,5.9,25.2,8.9,36.4,9.8c14.2,1.2,25.2-1.2,31.5-2.6c20.6-4.7,36.7-14.4,43.9-18.8
		c4.3-2.6,9-5.7,17.2-10.1c10-5.3,9.8-4.3,17.4-8.6c7.3-4.2,13.5-8.5,22-14.5c2.9-2.1,5.3-3.8,6.8-4.9c1.8-1.3,3.6-2.7,5.5-4.1
		c0.6-0.5,1.2-0.9,1.8-1.4c1.3-1,2.5-2,3.8-3c27.4-21.7,59.7-52.4,88.6-94.7c10.5-15.4,19.3-30.4,26.7-44.6
		c5.6,1.3,14.1,2.5,23.9,0.6c7.4-1.5,15.9-4.8,37.1-24c16.5-15,29.8-27,42.9-47.5c7.6-11.9,13-20.3,16.3-33.3
		C1927.8,1145.5,1924.8,1128.6,1922.3,1118.9z"/>
	<path class="st0" d="M1176,1162.6c-16-22.2-25.9-43.7-32.1-61c-8.8,43.2,0.7,72.4,6.6,86.1c3,7.1,16.5,24.6,43.4,59.7
		c24.4,31.7,30.8,38.8,42.2,43.8c21,9.1,42.7,4,55.3-0.3c-10.7-19.3-18.1-36.7-23.2-50.3C1245.7,1229.2,1207.3,1206,1176,1162.6z"/>
	<path class="st5" d="M1098.2,891.5c3.8-30.1,11.8-69.7,29.4-113.5c19.2-47.8,43.1-84.3,62.6-109.5c-3.9,13.8-7.7,27.7-11.6,41.5
		c6.1-5.8,12.4-12,18.7-18.8c3.2-3.5,6.3-6.9,9.2-10.3c-4.5,7.9-9.8,19.1-13.4,33.2c-3.7,14.6-4.3,27.3-4,36.5
		c-21.1,51.9-46.2,87.5-65.7,110.7c-19.6,23.4-31.6,32-57.6,65.1c-28.5,36.3-45.3,65.8-50.8,75.9c-36.9,66.6-38.9,103.5-39.1,114.7
		c-0.4,16.3,1.5,34,4.2,34.2c4,0.2,2.1-38.8,19.4-83.5c10.4-26.9,28.2-51,63.9-99.2c18.7-25.3,21.5-26.7,35.2-46.9
		c10.4-15.4,17.6-27.8,32-43.6c8.6-9.5,16.4-16.6,21.9-21.2c-8,21.2-19.8,53.8-32,94.3c-18.1,60-18.4,74.4-34.8,114.7
		c-11.1,27-23.5,57.3-48.7,91.3c-4.6,6.2-3.4,4.1-44.4,55c-30.1,37.3-32.8,41-36.9,48c-4.8,8.3-19.8,35.5-25.9,74.7
		c-4.3,27.8-2.5,51.5,0.2,68.4c2-14.9,6.1-35.6,14.9-59.1c3.7-9.8,14.6-37.1,41.9-74.4c29.5-40.3,35.1-33.3,61.9-68.7
		c25.5-33.8,39.9-65.8,56.9-104c10.1-22.6,17.5-42,22.5-55.8c2.1,13.7,5.4,29.6,11,46.7c7.8,24.1,17.6,43.9,26.7,59.1
		c-18.4-67.1-21.2-124.1-20.3-162.9c1-45.1,3.2-113.3,39.3-189.5c16.7-35.3,35.8-61.8,49.8-79.2c-1.6,13.1,1,18.1,4,20.2
		c2.6,1.8,4.5,0.8,10.7,3.6c6.3,2.8,7.5,5.3,9.8,4.6c3-0.9,3.3-5.5,6.2-12.8c2.3-5.8,5.1-10.2,7.1-12.9c-2.8,12.1-5.6,24.2-8.4,36.5
		c-3.1,13.5-6,26.9-8.9,40.3c8.5-13.3,17.1-28.2,25.3-44.8c16.3-33,26.8-64,33.7-90.6c-13.4,13.6-28.4,26.8-34.1,23.2
		c-8.2-5.1,4.9-42.2,17.5-66.4c11.9-22.9,35-56.9,82.2-87.2c-23.2,14.2-50.4,33.9-77.7,60.7c-16.8,16.4-30.7,32.7-42.1,47.7
		c6.7-14.6,9.7-27.3,5.8-30.1c-4.1-2.9-16.4,5.2-29.8,20c12.5-21.3,29.6-46,52.6-71c39.8-43.2,81.6-70.2,112.4-86.5
		c-43.3,19.4-107.8,54.9-169.8,117.9c-26.9,27.4-69.5,76.3-104.2,147.9c-34.9,72-47.6,137.3-52.6,180.6
		C1082.1,907.8,1090.1,899.7,1098.2,891.5z"/>
	<path class="st6" d="M1289.3,774.9c-2.9-1.8,9.4-27.5,21.2-48.4c13.4-23.8,26.9-42.4,37.3-55.7c1.1,5.6,2.9,13.4,6.1,22.5
		c5.2,14.7,10.1,28.9,18.7,29.9c3,0.3,6.4-1.9,13.1-6.4c7.9-5.3,13.9-10.6,17.9-14.3c-1,9.5-2.9,20-6.1,31.2
		c-12.2,42.9-36.3,70.5-37.1,70c-0.5-0.3,10.6-13.7,13.3-33.9c0.5-3.8,0.6-6.9,1.7-13.3c1.7-9.4,4.1-16.9,5.8-21.8
		c-3.7,4.9-9.4,12.8-15.7,22.9c-10.4,16.5-14.6,26.4-18.6,25.7c-5.6-1.1-3.7-23-9.4-24c-5.3-0.9-11.8,17.2-13.9,16.4
		c-1.8-0.7,1.1-14.1,4.8-26.1c3.5-11.5,6.3-16.6,5.1-17.4c-1.6-1-7.6,5.9-20.4,19.6C1298.2,767.8,1290.6,775.7,1289.3,774.9z"/>
	<path class="st6" d="M1413.3,772c-1.8-4.2-1.4-7.7-1.2-11.7c0.4-11.1-1.4-15.5-1.7-22.3c-0.8-16.5,7.8-40.1,12.2-51.2
		c1.9,9.7,4.3,17.3,6.1,22.5c2.9,8.5,5.8,14.3,6.9,24.3c0.1,1.2,0.4,3.6,0.4,9.9c0.1,10.9-0.5,33.2-2.8,33.4
		c-2.5,0.1-5.8-26.3-7.1-26.1c-1.4,0.2,3.5,28.9-2.4,30.8C1420.7,782.5,1415.5,777.2,1413.3,772z"/>
	<path class="st6" d="M1454.7,803.9c-0.9-0.1,0.3-11.4-2.2-27.2c-1.8-11.3-3.8-14.3-5.4-21.9c-4.8-22.9,2.5-48.1,7.5-48.2
		c4.6-0.1,11.2,21.4,9.9,41.4c-0.5,7.6-1.7,7.4-5.1,28.6C1456.6,793.3,1455.6,804,1454.7,803.9z"/>
	<path class="st6" d="M1528.3,796.9c3.7-1.1,1.7-10.2,5.3-26.8c3.2-14.6,8-22.3,4.9-24.9c-2.9-2.4-8.1,3.8-14.8,1.5
		c-7.6-2.5-7.4-12.7-13.3-13.6c-5.5-0.8-7.3,7.8-15.2,9.7c-11.4,2.7-20.6-12.3-25.9-9.2c-1.8,1.1-2,3.6-0.5,25.6
		c1,14.9,1.4,17.3,2.8,20.9c1.8,4.6,5.1,12.9,13.6,16.7c7,3.2,17.3,3,21.6-2.2c3.8-4.5,1.2-10.6,3.8-11.6
		C1514.9,781.4,1523,798.4,1528.3,796.9z"/>
	<path class="st6" d="M1549.5,785.3c-4.1-1-3.1-19.9-1.8-29.8c3-24.2,13.5-49.8,18.7-48.8c4.7,0.9,5.3,24.3,0.8,43.6
		C1563,767.9,1553.8,786.4,1549.5,785.3z"/>
	<path class="st5" d="M1024.3,1524.4c-7.9-18.6-16.9-47.4-13.8-81.6c0.9-9.7,2.3-14.9,8-37.2c26.5-102.2,26.6-105.9,34.4-129.1
		c8.8-26.3,16.9-47.7,22.6-62.3c-0.7,17.6,0.4,43.5,9.5,73c6.8,22.3,16.2,40,24.2,52.7c-6.6-29.2-12.5-68.5-11-115
		c1.5-48.7,10.6-89.2,19.5-118.6c-14.3,19.9-28.7,40.4-43,61.4c-7.5,11-14.9,22-22.1,32.9c-6.6,14.4-14.9,34.2-23,58.2
		c-4.5,13.2-18.6,56.7-27.2,118.4c-5.6,40.7-8.3,61.6-3.3,86.4C1004.6,1490.6,1015.7,1511.3,1024.3,1524.4z"/>
	<path class="st7" d="M1520,527c-28.2-15.8-55.1-15.9-69.1-15.8c-26.2,0.2-47.4,6.8-61.7,12.9c12.9-8.5,44.3-26.3,85.2-23.1
		c13.6,1.1,25.2,4.2,34.5,7.7c-10.2-4.8-22.3-9.7-36.4-13.7c-9.6-2.7-18.6-4.6-26.8-6c7.7-3.4,22.4-8.7,41.6-8.1
		c19.2,0.6,33.6,6.9,41.1,10.7c-3.5-3.9-11.9-12-25.4-16.1c-17.1-5.1-31.4-0.5-36.1,1.2c16.3-13.3,38-17.1,56.4-9.6
		c19.6,8,27.6,25.4,29.3,29.4c3.9-4.3,9.9-9.9,18.5-14.4c17.7-9.3,34.8-7.8,41.8-6.8c-8.4,4.2-18.8,10.7-29.1,20.5
		c-4.9,4.7-9,9.4-12.3,13.8c11.7,0,23.3,0.1,35,0.1c-10.4,4.2-22.6,10.2-35.5,18.7c-9.5,6.3-17.6,12.7-24.3,18.8
		C1541,541.5,1532.2,533.8,1520,527z"/>
	<path class="st7" d="M1371.9,629.4c18.6-24,36.7-41.3,50.4-53.1c23.1-19.8,36.6-31.1,57.6-34.7c21.3-3.6,39.5,2.6,50.1,7.3
		c-14.2,6.9-33,17.9-51.9,35.4c-23.7,21.8-37.9,44.7-45.9,60.4c1.9-11.6,6.2-29.5,17.2-48.7c9.5-16.6,20.6-28.1,28.8-35.5
		c-17.7,7.4-38.4,17.9-60.3,32.5C1399.4,605.2,1384.2,617.9,1371.9,629.4z"/>
	<path class="st7" d="M1545.3,558.5c-6.2,0.8-6.1,19.6-11.8,42.4c-9.1,36.5-28.5,55.1-25.2,57.6c2.9,2.2,18.5-11.8,29.7-26.8
		c8.5-11.4,25.6-34.2,19.1-56.9C1554.9,567.2,1549.6,557.9,1545.3,558.5z"/>
	<path class="st7" d="M1561.2,551.7c11.7,12.9,27.5,33.5,38.9,62.1c17.4,43.5,15.5,82.4,13.1,102.3c4.2-2.2,9.1-5.5,13.9-10.2
		c13.4-13.1,17-29,18.1-36.1c10,16.4,19.2,29.6,22.3,28.2c3.4-1.5-2.9-19.9,0.3-21.3c5.4-2.3,31.6,46.6,34.7,45.1
		c2.3-1.1-11.5-28-4.7-33.2c4.6-3.6,14,6.4,20.3,2.9c10.2-5.8-1.9-39.5,3.2-41.5c5.5-2.2,25.1,33.7,30.8,44.3
		c25.7,47.3,40.4,79.6,40.7,79.4c0.2-0.1-5.8-13.1-14.3-28c-7.3-12.7-10.2-15.7-14.1-17.8c-7.9-4.2-20.3-4.7-26.1,1.5
		c-9.7,10.3,4.8,33.8-1.1,37.6c-6.9,4.4-28.8-26.5-38.5-22.2c-5.2,2.3-7.6,14.8,0.7,54.9c-7.9-11.1-16.1-24-24-38.7
		c-9-16.7-15.8-32.4-21.1-46.5c-0.8,10.8-3,25.7-9.4,42.2c-1,2.5-9.8,25.2-15,24c-2.9-0.6-2-8.3-6.1-23.1
		c-0.7-2.4-6.7-24.2-11.2-23.8c-3.9,0.3-3.9,17-7.5,35.7c-2.8,14.6-8.6,34.4-21.5,57.2c4.7-24.6,8.4-54.9,8.2-89.5
		c-0.2-28.1-2.9-53.1-6.5-74.3c5.6,73.7-6.2,129-17.8,165.4c-12.3,38.6-31.3,77.6-35.8,76.1c-4.8-1.6,9-49.7,3.4-51.6
		c-4-1.3-17.4,21.3-25.2,46.3c-8.2,26.3-5.7,41-10.6,42.3c-5.4,1.4-17.6-13.7-48.3-91.1c7.1,36.5,16.6,64.5,24.1,83.5
		c5.6,14.2,9,20.7,12.2,32.7c8.2,30.9,4.6,58.5,0.2,77.3c18.6-15.4,41-37,62-66.2c32.4-44.8,48-88.5,56-118.2
		c-0.6,22-4.1,53.9-17.3,89.6c-10.4,28.1-23.7,50-34.9,65.7c19.3-15.3,44.5-39.4,65.8-74.5c41.9-69.3,41.8-138.3,40-167.8
		c16.5,33.5,37.6,70.8,64.8,109.6c40.8,58.3,83.5,103.7,120.8,137.8c0.1,23.3-2.8,63.8-22.4,109.1c-19,43.8-45.3,72.9-62,88.9
		c20.2-10.6,43.8-25.2,68.2-45.1c33-27,56.6-55,72.9-77.6c-2.2,14.5-6.3,35.7-14.3,60.7c-6.9,21.5-13.3,35.1-11.8,35.9
		c1.5,0.8,10.5-11.2,44.9-70.3c6.9,21.1,4.3,37.2,2.4,45c-4.1,16.8-13,27.7-27.7,45.4c-2.7,3.2-13.3,16-30.1,29.9
		c-13.3,11.1-22.5,18.6-37.1,24c-10.9,4-20.6,5.2-27.1,5.5c-10.1,11.9-24,30.4-35.7,55.5c-12.5,26.7-14.9,44.8-21.4,66.5
		c-7.2,24.1-20.7,57.6-48.8,95.6c16.9-13.4,39.5-34.6,59.3-65.5c12.9-20.2,21.3-39.4,26.9-55.2c11.1,10.1,13.9,18.4,14.4,24.3
		c0.2,2.2,0.1,5,0.5,10.7c0.5,6.6,1.4,12,2,15.6c6.5-9.1,14.8-22.7,20.4-40.7c8.1-26.2,6.7-48.8,4.8-61.7
		c5.9,17.9,11.6,40.6,14.5,67.2c2.5,22.9,2.3,43.3,1.1,60.3c11.7-16.9,23.9-37.4,35-61.5c19.1-41.5,28.3-79.8,32.9-109.5
		c1,30.2,2.1,60.4,3.1,90.6c7.3-13.4,15.6-32.6,19.8-56.8c2.2-12.7,2.8-24.2,2.7-34c4.7,14.6,13.7,42.2,18.4,56.8
		c4.9,15.1,13.9,42.9,18.8,58c16.8-56.2,11.5-94.9,3.2-120.1c-6.1-18.6-19.1-45.5-27.3-91c-3.5-19.3-5.2-36.7-3.2-37.1
		c2.6-0.6,8.7,29.6,25.6,66c10.2,22,21,38.9,28.7,49.9c-12.8-38.4-25.2-78.3-37.1-119.8c-7.7-27-14.9-53.5-21.5-79.5
		c-2.4,16.6-6.7,36.4-14.6,57.8c-13.8,37.7-33.1,65.7-48.3,84.2c8.6-24.2,16.9-52.3,23.3-84c7.7-37.8,11-72.1,12.1-101.4
		c-6.8,19.4-14.3,39.4-22.7,59.9c-11.5,28.4-23.5,54.9-35.6,79.7c-9.6,9.4-24.2,22.8-43.4,37.2c-13.9,10.4-45.1,32.3-48.2,28.7
		c-3.1-3.5,24.3-28.2,42.6-52.1c42.1-55.2,43.9-117.9,45.9-190.6c0.8-30.2,1-124-42.7-232.2c-18-44.5-35.6-86.8-78-127.1
		c-33.8-32.1-69.1-49.4-92.9-58.7c-14.1-3.5-28.3-7.1-42.4-10.6c11.8,5,28.9,13.9,45.9,29.6c13.8,12.8,22.9,25.8,28.7,35.7
		c-12.9-7.8-25.8-15.6-38.7-23.5c5.1,6.4,14.8,20.6,16.7,40.7c0.8,9-0.1,16.8-1.4,22.6c-0.6-8.6-4.6-52.4-40.8-80.7
		C1587.7,558.9,1571.8,553.9,1561.2,551.7z"/>
	<path class="st7" d="M2001.6,1454.4c9.7-24.2,19.7-56.3,24.7-94.8c7.4-57.4,0.5-105.4-6.8-137.3c7.8,12,17.4,29.6,23.8,52.4
		c5.2,18.3,6.9,34.6,7.3,47.2c-0.8,17.4-3.9,42.8-14.6,71.3C2025.7,1420.6,2012.1,1441,2001.6,1454.4z"/>
	<path class="st7" d="M2085.3,1289.7c-18.2-50.2-36.7-88.9-50.1-114.6c-19.9-38.3-31.8-54.6-51.6-93.9
		c-21.5-42.7-35.5-79-43.7-102.2c-2.8-27-1.3-33.3,0.6-33.8c4.3-1,9.5,27.5,30.8,66.1c12.4,22.3,18.2,26.5,49.3,75.5
		c6.5,10.2,11.6,18.6,15,24.1c7.4,21.5,14.5,43.9,21.4,67.2C2068.4,1216.9,2077.7,1254.3,2085.3,1289.7z"/>
	<path class="st7" d="M1685.4,584.5c-4.5-8.5-9.7-17.6-15.9-27.1c-9.4-14.3-19.1-26.3-28.1-36.4c8.5,0.3,20.8,1.7,34.4,7
		c21.9,8.6,35.5,22.8,41.9,30.6c-10.7-13.4-28.1-31.6-54.1-45.6c-10-5.4-19.5-9.3-28.1-12.1c24.4,5.5,30.8,4.9,31.5,3
		c1.4-3.7-16.4-16.1-36.5-20.6c-7.3-1.6-13.7-1.9-18.3-1.8c14,0.5,35,2.3,59.6,8.8c57.6,15.2,95.4,45.5,119.8,65.6
		c32.1,26.4,63.9,60.7,60.4,64.9c-1.5,1.9-9.9-2.4-17.6-6.9c0.9,1.7,3.8,7.9,1.3,13c-3.4,7-16.8,10.4-31.7,3.9
		c-5.7-9.3-13.7-20.3-24.9-31.1c-5.1-5-10.2-9.2-15.1-12.8c5,5.2,15.5,17.6,19.4,36.7c2.4,11.7,6.5,24,0,30c-5.9,5.3-18,4-29.7-3.2
		c-9.8-11.6-21.2-23.9-34.4-36.4C1707.9,602.8,1696.3,593,1685.4,584.5z"/>
	<path class="st7" d="M1795.9,722.9c-3.7-6.6-2.2-15,3.6-19.7c6-4.9,15-4.6,20.7,1c2.1-2.5,5.4-5.5,9.9-6.7
		c14.2-3.5,29.3,14.6,36,22.6c8.7,10.5,13.1,19.9,19.7,34.5c8,17.5,12.4,31.5,13.5,34.9c26.3,83.4,25.5,152.9,25.5,152.9
		c-0.3,29.9-3.9,72.6-18.8,122.1c1.3-9.8,3-25,3.2-43.7c1.3-100.4-40.1-178.3-64.3-222.5C1834.5,779.2,1818.6,752.7,1795.9,722.9z"
		/>
	<path class="st7" d="M1860.5,710.4c-8-11.3-5.7-23.4,0-26.7c4.1-2.4,10.5-0.6,16,3.3c-5.8-5.3-5.8-14.3-0.8-19.3
		c4.5-4.4,12-4.8,17.4-0.6c-1.4-8.7-3.4-18.1-6-28.1c-2.6-9.9-5.6-19-8.6-27.2c19.1,26.5,38.3,56.8,56,91.3
		c57.8,112.2,75.3,219.3,80,295.4c-8.4-36.5-22-80.7-44.7-128.4C1935.7,798.6,1893.7,745.8,1860.5,710.4z"/>
	<path class="st7" d="M1389.1,797.5c-39.9,66.1-61.9,98-66,95.9c-2.6-1.4,2.1-16.5,14-45.5c-7.6,10-18.7,25.2-31,44.4
		c-26.8,42-37,68.4-40.8,67c-6.1-2.1,12.5-69.2,15.9-81.3c10.9-38.8,21.9-70.1,29.9-91.1c-8,16.2-20.4,40.7-36.7,70.3
		c-21.3,38.7-25.6,43.4-31.2,60.8c-8.5,26.4-9.4,49.4-10.8,85c-0.8,21.1-0.4,38.6,0.1,50.6c19.2-23.3,38.7-49.1,58-77.3
		C1333.7,913.1,1365.5,852,1389.1,797.5z"/>
	<path class="st7" d="M1199.7,1188.8c-8.9-19.1-17.7-40.3-25.7-63.5c-14.6-42-23.3-81-28.7-115c6.7,14.7,17.4,36.9,32.6,63
		c7.7,13.2,23.4,40.1,27.4,38.4c3.2-1.4-4-20-8.1-42.2c-4.2-22.7-5.5-51.2,1.4-85.4c1.4,29,6.9,70.3,25.2,116.3
		c26.2,65.9,65.9,109.1,90.5,132c-8.7-2.8-18.2-6.4-28.3-11.1c-10.5-4.9-19.8-10-27.8-14.9c2.8,9.9,5.6,19.8,8.4,29.6
		c-12.5-5.3-27.9-13.4-43.8-25.8C1213.6,1203,1205.9,1195.6,1199.7,1188.8z"/>
	<path class="st7" d="M1114.4,1522.1c-8-13.1-16-28.6-23-46.4c-18.1-46.2-21.2-88.4-20.7-117.7c3.1,21.2,10.6,33.2,17.3,40.4
		c3.7,4,9.8,9.2,15.1,19c3.8,7,5.6,13.5,6.6,18.1c-2.3-10.3-4-23.6-3.1-39c0.4-7.3,1.4-14,2.6-19.9c2.2,15.3,6.9,36.2,17.4,59.1
		c12,26.4,27.1,45.4,38.5,57.7c10.2,1.2,20.4,2.3,30.7,3.5c-10.3-13-23.4-31.5-35.4-55.4c-32.5-64.5-35-123.5-34.9-147.9
		c0.2-45.9,10.2-83.7,19.8-109.9c19.3,21.6,32.5,40.5,41.1,53.9c8.9,13.9,16.4,27.7,33,41.3c6.3,5.2,14.4,11.7,26.6,15.7
		c20.6,6.8,39,2,47.2-0.7c7,12.4,15.2,25.3,24.8,38.3c38,51.5,82.8,84.3,118.1,104.7c-1.5,18.3-4.2,38.2-8.7,59.5
		c-2.2,10.7-4.7,20.9-7.4,30.6c-10-4.4-21.5-10.8-33-19.9c-35.4-28.3-48.7-65.6-53.6-83.4c-1.5,12.8-2.2,33.5,5.2,56.9
		c13.6,42.9,45,66,56.1,73.5c-8,0.8-18.3,1.1-30-0.6c-17.9-2.6-31.7-8.7-40.7-13.6c4.9,6.4,9.9,12.8,14.8,19.3
		c-14-1.9-32.1-5.9-51.7-14.5c-35.3-15.5-58-38.3-70.1-52.7c0.4,21,4.6,37.4,8.3,48.2c5,14.9,9.7,27.8,20.9,32.2
		c10.2,4,20.9-1,21.4,0.5c0.5,1.7-13,8.3-23.6,11.1c-11.6,3-40.1,6.7-84.6-25.2c0.9,2.4,4.7,14-1.1,25.4
		c-6.1,12-20.5,18.9-35.7,16.8c2.4-2.8,14.7-18.2,12.6-40.7C1132.7,1537.4,1117.2,1524.4,1114.4,1522.1z"/>
	<path class="st7" d="M1144.7,1172.3c-9.3,14.7-15.2,27.9-19,37.7c-5.7,14.6-17.9,47-14.2,88.6c1,11.6,3.1,21.1,4.7,27.6
		c-8.6-24.3-18.7-62.2-17.7-109.1c1.4-65.2,23.5-114.3,37.2-139.6c2.7,8,5.5,16.1,8.2,24.1c-2.8,7.1-6.2,18.3-6.5,32.2
		C1137,1151.1,1141.5,1164.6,1144.7,1172.3z"/>
	<path class="st3" d="M1261.3,1159.9c-3.7-9.9-8.7-27.4-7.4-49.5c1.4-24.4,9.8-41.7,12.1-46.2c11.9-23.6,29.3-37.1,38.6-43.3
		c-4.9-5.2-9.8-10.4-14.6-15.6c14.5-20.3,29.2-41.8,43.8-64.3c18-27.7,34.5-54.8,49.7-81c6.7,21.4,16.5,46.7,31.1,73.6
		c19.9,36.8,42.4,65.1,61.3,85.4c0-12.5-0.1-25-0.1-37.5c5,8.5,10,17.1,15,25.6c1.8,10.8,3.5,21.6,5.3,32.4
		c10.4-5,22.1-11.6,34.1-20.6c29.5-22.1,47-48,56.9-65.8c-8.4,20.4-16.8,40.8-25.2,61.1c15.8-9.5,35.6-24.2,53.9-46.3
		c42.6-51.5,48.8-109.1,49.9-132.6c14.8,19.3,29.7,39.3,44.6,60c27,37.4,52,74.3,75.1,110.2c9,9.4,25,28.4,34.1,57.3
		c8.2,26,7.1,48.4,5.6,61c5.9-14.5,11.8-32.2,16.1-52.9c3.7-17.7,5.5-33.8,6.2-47.7c-14.9-10.9-30.7-23.9-46.7-39.4
		c-32-30.9-55.2-62.1-71.7-88.7c-23.2-37.5-46.4-75.1-69.7-112.6c1.1,25.4-0.4,68.1-19,116.2c-23.5,61.1-62,98.8-82.5,116.3
		c14-21.8,30.6-54.4,38.3-96.4c2.8-15,4-29,4.3-41.6c-6.5,21.7-16.9,48.6-33.9,77.2c-25.5,42.9-55.6,72.2-77.7,90.5
		c2.2-12.9,4.2-32.8,0.7-56.3c-4.1-27.7-12.4-37.5-24.3-73.4c-15.8-47.5-17.3-78.9-20.2-78.5c-3.1,0.4-2,37,1.3,70.2
		c4,39.2,10.8,71.1,16.2,92.9c-15.6-24.5-35.3-61.2-48.4-109.1c-13.3-48.6-14.9-90.7-13.8-119.9c-16.4,40.1-36.9,83.8-62.4,129.6
		c-34.6,62-71,114.6-105.1,157.9c0.7,11.5,2.2,24.6,5.4,38.8C1243.9,1123,1253,1144.2,1261.3,1159.9z"/>
	<path class="st3" d="M1143.4,1167.7c5.1,15.5,15.2,24.1,35.5,41.4c21.5,18.3,32.2,27.4,48.2,31.5c10.6,2.7,24.7,3.8,25.2,8.6
		c0.4,3.7-7.8,5.7-8.1,12.1c-0.2,4.5,3.7,8.6,6.7,10.5c1.1,0.7,4.4,2.8,8.5,2.2c2.5-0.3,3.9-1.5,4.8-0.8c1.2,1,0,4.6-0.8,6.4
		c-4.9,10.4-22.8,10.7-22.6,13.3c0.1,1.9,10.2,3.5,22.2,3c12-0.5,21.8-2.9,28.5-5.1c-6.7-12.1-13.1-25.3-19-39.7
		c-1.5-3.6-2.9-7.1-4.2-10.7c-18.2-9.6-42.8-25.2-66.9-49.9c-32.1-32.9-48.9-67.2-57.5-89c-2.1,8.7-4.3,21.3-4.1,36.5
		C1139.9,1147.9,1140,1157.5,1143.4,1167.7z"/>
	<path class="st3" d="M1841.6,1259.2c-0.9-3.5-9.2-1.8-11.9-6.3c-3.9-6.4,7.5-19.9,12.3-25.6c5.9-7,15.4-16.7,29.8-25.7
		c4.5-11.1,8.9-23.5,12.7-37.3c6.5-23.6,9.6-45.2,10.9-63.5c-8,12.9-18.4,27.4-31.7,42.4c-11.2,12.6-22.2,23.1-32.3,31.7
		c-0.3,11.6-1.8,26.3-6.2,42.6c-5.9,22.4-15.1,39.7-22.6,51.6c5.6,2.2,16.9,5.5,27.9,0.7C1835.9,1267.4,1842.5,1262.6,1841.6,1259.2
		z"/>
	<path class="st3" d="M1533.5,1214.4c-6.5,5.5-17.4,5.7-25.2,0.7c-7.9-5-9.7-13.4-10-14.9c-2.3-11.9,6-21.4,11.2-27.4
		c4.3-4.9,12.6-14.4,19.3-12.3c6.4,2,7.8,13.3,9,23.4C1539.5,1197.7,1540.8,1208.2,1533.5,1214.4z"/>
	<path class="st3" d="M1282.4,1222.5c9.3,16.4,23.1,40.1,40.8,68c31.6,49.8,47.9,75.2,74.3,101.9c35.2,35.7,66.1,51.6,65.1,53.1
		c-1.3,1.9-58-23.4-107.3-70.2c-62.9-59.8-87.7-130-98-168.8C1265.7,1211.9,1274,1217.2,1282.4,1222.5z"/>
	<path class="st8" d="M1070.3,920.6c8.8-64,35.6-186.3,130.1-298.2c43.6-51.6,135.8-160.8,271.4-164.9c33.8-1,62.1,4.7,81.6,10.3
		c23.1-2.6,57.4-4.2,97.7,3c0,0,85.2,15.1,168.6,80.7c93.9,73.9,175.8,240.7,195.5,455"/>
	<g>
		<path class="st9" d="M1743.6,567.9c44.2,39.6,83.1,85.4,114,136.2c15.5,25.4,29,51.9,40.4,79.4l4.1,10.4l2.1,5.2l1,2.6
			c0.4,0.9,0.7,1.7,1,2.6l7.3,21.1c2.4,7,4.5,14.1,6.7,21.2c2.2,7.1,4.3,14.2,6.2,21.4c7.9,28.7,13.9,58,16.5,87.6
			c1.3,14.8,1.9,29.7,1.5,44.6c-0.4,14.9-1.7,29.8-3.9,44.5c-4.4,29.5-12.8,58.4-24.5,85.7c-11.7,27.4-27,53.2-45,77l-5.9,7.7l3.5-9
			c12.3-31.6,21.9-64.3,28.5-97.6c3.3-16.6,5.9-33.4,7.9-50.3c1.8-16.9,2.9-33.8,3.3-50.8c0.7-34-1.6-68-6.8-101.6
			c-5.2-33.6-13.4-66.7-24.4-98.9c11.4,32.1,19.9,65.2,25.5,98.8c2.8,16.8,4.9,33.7,6.1,50.7c1.3,17,1.7,34,1.5,51.1
			c-0.3,17-1.3,34.1-3,51c-1.8,16.9-4.3,33.8-7.6,50.6c-6.5,33.5-16.1,66.3-28.4,98.1l-2.3-1.3c17.8-23.6,32.9-49.3,44.5-76.5
			c11.6-27.2,19.8-55.8,24.3-85c2.2-14.6,3.5-29.4,4-44.1c0.4-14.8-0.1-29.6-1.4-44.3c-2.5-29.5-8.4-58.6-16.2-87.2
			c-3.9-14.3-8.3-28.4-12.8-42.6l-7.1-21c-0.3-0.9-0.6-1.8-1-2.6l-1-2.6l-2-5.2l-4-10.4c-11.2-27.4-24.5-54-39.8-79.4
			c-7.6-12.7-15.8-25.1-24.3-37.2c-2.1-3.1-4.3-6-6.5-9l-6.6-8.9c-2.2-3-4.6-5.8-6.9-8.7l-3.5-4.4c-1.1-1.5-2.3-2.9-3.5-4.3
			c-4.8-5.7-9.5-11.4-14.5-16.9c-2.5-2.8-4.9-5.6-7.4-8.3l-7.6-8.1C1765.1,588.3,1754.6,577.9,1743.6,567.9z"/>
	</g>
	<g>
		<path class="st9" d="M1536,535.1c-12.2-6.7-25-12.4-38.4-16.3c-1.7-0.5-3.3-1-5-1.4c-1.7-0.4-3.4-0.9-5.1-1.3l-5.1-1.1l-5.1-0.9
			c-1.7-0.3-3.4-0.6-5.2-0.8c-1.7-0.2-3.4-0.5-5.2-0.7c-3.5-0.3-6.9-0.7-10.4-0.7c-6.9-0.4-13.9,0-20.8,0.6l-5.2,0.6l-2.6,0.3
			l-1.3,0.2l-1.3,0.2l-5.1,1l-2.6,0.5c-0.8,0.2-1.7,0.4-2.5,0.6c-13.5,3.3-26.4,8.5-38.5,15.3c-12.1,6.8-23.4,15-34.2,23.7
			c-5.4,4.4-10.7,8.9-15.9,13.5c-5.2,4.6-10.5,9.2-15.6,13.9c-10.2,9.4-20.1,19.2-29.2,29.7c-9.2,10.4-17.8,21.3-26,32.5
			c-16.4,22.5-30.7,46.4-44.8,70.4l-10.5,18.1l-5.2,9.1c-1.7,3-3.4,6.1-5,9.1c-3.3,6.1-6.4,12.3-9.5,18.5l-9.2,18.8
			c-6.2,12.5-13.1,24.8-20.7,36.5c-7.6,11.7-15.7,23.1-24.1,34.3c-16.9,22.2-35.5,43.2-55.5,62.7l0.1-0.1
			c-16,19.7-30.8,40.3-44,61.9c-13.1,21.7-24.7,44.3-33.7,67.9l-3.3,8.9l-3,9c-2,6-3.8,12.1-5.3,18.2c-3.1,12.2-5.2,24.7-4.9,37.3
			c0.3,12.5,3.1,24.9,8.1,36.4c5,11.5,12.1,22,20.7,31.2l-2.2,2c-8.8-9.4-16.1-20.2-21.3-32c-5.2-11.8-8.2-24.6-8.5-37.5
			c-0.3-12.9,1.8-25.7,4.8-38.1c1.5-6.2,3.3-12.4,5.3-18.4l3-9.1l3.4-9c9.2-23.8,20.9-46.6,34.1-68.4c13.3-21.8,28.2-42.5,44.3-62.2
			l0.1-0.1l0.1-0.1c19.9-19.4,38.4-40.2,55.3-62.3c16.7-22.2,32.4-45.2,44.6-70.2l9.2-18.8c3.1-6.2,6.3-12.5,9.6-18.6
			c1.6-3.1,3.4-6.1,5-9.2l5.2-9.1l10.5-18.1c14.1-24,28.6-47.9,45.2-70.4c8.3-11.3,17-22.2,26.3-32.6c9.3-10.5,19.2-20.3,29.5-29.7
			c5.2-4.7,10.4-9.3,15.7-13.8c5.3-4.6,10.6-9,16.1-13.4c10.9-8.7,22.4-16.8,34.6-23.6c12.3-6.7,25.4-12,39-15.2
			c0.8-0.2,1.7-0.4,2.5-0.6l2.6-0.5l5.2-0.9l1.3-0.2l1.3-0.2l2.6-0.3l5.2-0.6c7-0.5,14-0.8,21-0.3c3.5,0.1,7,0.5,10.4,0.8
			c1.7,0.2,3.5,0.5,5.2,0.7c1.7,0.3,3.5,0.5,5.2,0.9l5.1,1l5.1,1.2c1.7,0.4,3.4,0.9,5.1,1.3c1.7,0.5,3.4,0.9,5,1.5
			C1511.1,522.4,1523.9,528.2,1536,535.1z"/>
	</g>
	<g>
		<path class="st9" d="M1098.5,921.5c-7.1,9.8-14.3,19.6-21.3,29.4c-7.1,9.8-14.2,19.6-21.2,29.5c-7,9.9-14,19.8-20.8,29.8
			c-3.4,5-6.8,10-10.1,15c-3.3,5.1-6.5,10.2-9.4,15.4c-2.9,5.2-5.4,10.6-7.6,16.3c-2.3,5.6-4.4,11.2-6.3,16.9
			c-1.9,5.7-3.5,11.5-4.7,17.4c-1.2,5.9-1.8,11.8-2,17.8c-0.4,12,1.8,24,6.1,35.2c4.3,11.2,10.9,21.6,18.8,30.7
			c-8.5-8.7-15.4-18.9-20.2-30.2c-4.7-11.3-7.2-23.5-7.1-35.8c-0.1-12.3,2.6-24.4,6.3-36c1.9-5.8,4.1-11.5,6.3-17.1
			c2.2-5.7,4.8-11.3,7.7-16.6c3-5.4,6.2-10.5,9.6-15.6c3.3-5.1,6.8-10.1,10.2-15.1c7-9.9,14-19.8,21.3-29.5
			c7.2-9.7,14.5-19.4,21.9-29.1C1083.4,940.5,1090.8,930.9,1098.5,921.5z"/>
	</g>
	<g>
		<path class="st9" d="M1156.2,846.2c-5.6,15.6-11.1,31.3-16.4,47c-5.3,15.7-10.4,31.5-15.4,47.4c-5,15.8-9.8,31.7-14.4,47.7
			c-4.6,15.9-8.8,32-13.4,48c-4.6,16-10.3,31.7-17,47c-6.7,15.3-14.3,30.1-22.7,44.5c-8.4,14.4-17.6,28.3-27.5,41.7
			c-9.9,13.4-20.4,26.3-31.5,38.8l0,0l0,0c-18.9,17.9-35,38.8-46.7,62.1c-5.8,11.6-10.5,23.8-14.1,36.4c-3.5,12.6-6.4,25.3-8.3,38.2
			c-1.9,12.9-2.7,26-1.6,39c1.1,12.9,4.3,25.8,10.7,37.2c6.4,11.3,16.3,20.6,28.1,26.1l2.2,1l2.3,0.9c1.5,0.7,3.1,1.1,4.6,1.7
			c3.1,1,6.3,1.9,9.5,2.5c3.2,0.7,6.4,1.2,9.7,1.5c3.3,0.4,6.5,0.6,9.8,0.6c-3.3,0-6.6-0.2-9.8-0.4c-3.3-0.3-6.5-0.7-9.7-1.4
			c-6.5-1.2-12.8-3.2-18.7-6c-12-5.4-22.3-14.7-28.9-26.1c-3.4-5.7-5.9-11.9-7.7-18.2c-1.8-6.4-2.9-12.9-3.6-19.4
			c-1.2-13.1-0.5-26.4,1.3-39.4c1.8-13,4.6-25.9,8-38.6c3.4-12.7,8.2-25.1,14.1-36.9c11.8-23.6,28-44.9,47.1-63l-0.1,0.1
			c21.8-24.9,41.8-51.5,58.6-80c8.4-14.3,16-29,22.7-44.2c6.6-15.2,12.3-30.7,17-46.6c4.7-15.9,9.1-31.9,13.8-47.9
			c4.7-15.9,9.7-31.8,14.8-47.6c5.1-15.8,10.5-31.5,16.1-47.2C1144.5,877.3,1150.3,861.7,1156.2,846.2z"/>
	</g>
	<g>
		<path class="st9" d="M1530,548.8c-17.1,3.6-34,8.4-50.3,14.5c-16.3,6.2-32.2,13.6-47.3,22.3c-3.8,2.2-7.5,4.4-11.2,6.8
			c-3.7,2.3-7.3,4.8-10.9,7.2l-5.4,3.7l-5.2,3.9l-5.2,3.9c-1.7,1.3-3.4,2.8-5.1,4.1c-13.5,11-26,23.2-37.5,36.4
			c-22.9,26.3-41.4,56.2-56.2,87.8c-14.7,31.6-25.7,64.9-34.3,98.7c-4.3,16.9-8,34-11.3,51.1c-1.7,8.6-3.2,17.2-4.8,25.8L1243,928
			l-1.1,6.5l-1,6.5l-2,12.9c-0.4,2.2-0.6,4.3-0.9,6.5l-0.8,6.5l-0.8,6.5c-0.1,1.1-0.3,2.2-0.4,3.2l-0.3,3.3l-1.2,13
			c-1.2,17.4-1.8,34.8-1.1,52.2c0.7,17.4,2.5,34.8,6.1,51.8c1.8,8.5,4,16.9,6.7,25.2c0.7,2.1,1.4,4.1,2.2,6.1l2.4,6.1l1.2,3l1.3,3
			l2.6,6c14.4,31.7,34.7,60.7,59,85.7l1.7,1.7l-2.3-0.4c-11.1-1.8-21.8-5.3-31.9-10.1c-5-2.4-9.9-5.2-14.6-8.3
			c-4.6-3.1-9.1-6.5-13.2-10.3c-2.1-1.8-4.1-3.8-6.1-5.8c-1-1-1.9-2.1-2.8-3.1c-0.5-0.5-0.9-1-1.4-1.5l-1.3-1.6
			c-0.9-1.1-1.8-2.1-2.6-3.2l-2.5-3.3c-1.6-2.3-3.2-4.6-4.7-6.9c-5.9-9.5-10.5-19.7-13.6-30.4c3.2,10.7,7.9,20.8,13.9,30.2
			c1.5,2.4,3.1,4.6,4.7,6.9l2.6,3.3c0.8,1.1,1.8,2.1,2.7,3.2l1.4,1.6c0.5,0.5,0.9,1,1.4,1.5c1,1,1.9,2,2.9,3c2,1.9,4,3.9,6.1,5.7
			c4.1,3.7,8.6,7,13.3,10c4.6,3,9.5,5.7,14.5,8c10,4.7,20.7,7.9,31.7,9.6l-0.7,1.3c-24.6-24.9-45.3-53.9-60-85.8l-2.7-6l-1.3-3
			l-1.2-3.1l-2.4-6.1c-0.8-2.1-1.5-4.1-2.2-6.2c-2.9-8.3-5.1-16.8-6.9-25.4c-3.6-17.2-5.5-34.7-6.2-52.2c-0.7-17.5-0.2-35.1,1-52.6
			l1.1-13.1l0.3-3.3c0.1-1.1,0.3-2.2,0.4-3.3l0.8-6.5l0.8-6.5c0.3-2.2,0.5-4.4,0.9-6.5l2-13c5.6-34.5,11.9-69,20.6-102.9
			c8.7-33.9,19.8-67.3,34.7-99.1c14.8-31.7,33.7-61.8,57-88c23.2-26.3,50.8-48.7,81.4-65.8c15.3-8.5,31.3-15.8,47.7-21.7
			C1495.9,556.9,1512.8,552.2,1530,548.8z"/>
	</g>
	<g>
		<path class="st9" d="M1257.8,1206.4c4.4,14.9,9.5,29.6,15.5,43.9c1.5,3.6,3.1,7.1,4.6,10.7c1.6,3.5,3.3,7,5,10.5l2.6,5.2
			c0.9,1.7,1.8,3.4,2.7,5.2c1.8,3.5,3.7,6.8,5.6,10.2c15.3,27,33.8,52.1,55.2,74.6c21.4,22.4,45.6,42.2,71.7,58.8
			c26.2,16.6,54.2,30.3,83.5,40.6l0.1,0l0.1,0c9.3,4.3,19.2,7.1,29.4,8.3c10.1,1.2,20.5,0.8,30.5-1.2c5-1,9.9-2.4,14.7-4.2
			c2.4-0.9,4.8-1.9,7.1-2.9c1.2-0.5,2.3-1.1,3.5-1.7l3.6-1.6c9.5-4.1,18.8-8.6,28-13.4c18.3-9.7,35.9-20.6,52.7-32.7
			c16.7-12.2,32.6-25.6,47.4-40l5.5-5.5l2.7-2.7l1.4-1.4l1.3-1.4l10.5-11.4l10.1-11.8c0.9-1,1.6-2,2.4-3l2.4-3.1l4.8-6.1
			c12.5-16.5,23.9-33.9,33.9-52c1.3-2.2,2.5-4.5,3.7-6.8l3.6-6.9c1.2-2.3,2.3-4.7,3.4-7c1.1-2.3,2.3-4.7,3.4-7
			c4.3-9.4,8.4-18.9,12-28.7c7.4-19.3,13.2-39.3,17.9-59.4l1.9,0.4l-1.7,7.6l-1.8,7.6c-1.3,5-2.6,10.1-4.1,15.1
			c-2.9,10-6.1,19.9-9.8,29.6c-3.6,9.8-7.7,19.3-12,28.8c-1.1,2.4-2.2,4.7-3.4,7c-1.1,2.3-2.2,4.7-3.4,7l-3.6,6.9
			c-1.2,2.3-2.4,4.6-3.7,6.9c-10.1,18.2-21.4,35.7-34,52.3l-4.8,6.2l-2.4,3.1c-0.8,1-1.6,2.1-2.5,3l-10.1,11.9l-10.6,11.5l-1.3,1.4
			l-1.4,1.4l-2.8,2.8l-5.5,5.5c-14.9,14.6-30.8,28.1-47.7,40.4c-16.8,12.3-34.6,23.3-53,33c-9.2,4.8-18.6,9.4-28.1,13.5l-3.6,1.5
			c-1.2,0.5-2.3,1.1-3.5,1.7c-2.4,1.1-4.8,2.1-7.3,3c-5,1.8-10,3.3-15.2,4.3c-10.3,2.1-21,2.5-31.5,1.2c-10.5-1.3-20.7-4.2-30.3-8.6
			l0.1,0.1c-29.5-10.4-57.7-24.2-84.1-41c-26.3-16.8-50.7-36.7-72.3-59.3c-10.8-11.3-20.8-23.3-30.1-35.9
			c-9.3-12.6-17.8-25.7-25.3-39.4c-1.9-3.4-3.8-6.8-5.5-10.3c-0.9-1.7-1.8-3.5-2.7-5.2l-2.6-5.3c-3.3-7.1-6.5-14.2-9.3-21.5
			c-1.5-3.6-2.8-7.3-4.2-10.9c-1.3-3.7-2.6-7.4-3.8-11.1c-2.4-7.4-4.6-14.9-6.5-22.5L1257.8,1206.4z"/>
	</g>
	<g>
		<path class="st9" d="M1126.9,1032.8c0.8,5.4,1.7,10.8,2.7,16.1c0.6,2.7,1,5.3,1.7,8l0.9,4l1,4c2.6,10.5,5.9,20.9,9.8,31.1
			c3.9,10.1,8.3,20.1,13.3,29.7c5,9.6,10.6,18.9,16.7,27.9c6.1,9,12.8,17.5,19.8,25.7c7.1,8.2,14.8,15.9,22.7,23.3
			c8,7.3,16.5,14.2,25.3,20.5c4.4,3.2,8.9,6.2,13.5,9.2c4.6,2.9,9.3,5.7,14,8.4c-9.8-4.8-19.2-10.3-28.3-16.4
			c-9.1-6.1-17.7-12.8-26-20l-3.1-2.7c-1-0.9-2-1.9-3-2.8c-2-1.9-4-3.7-5.9-5.7c-1.9-2-3.9-3.9-5.7-5.9l-5.6-6.1
			c-7.2-8.2-14-16.9-20.2-25.9c-6.1-9.1-11.7-18.5-16.7-28.3c-4.9-9.8-9.3-19.9-12.9-30.2c-3.7-10.3-6.7-20.8-9.1-31.5
			C1129.5,1054.5,1127.8,1043.7,1126.9,1032.8z"/>
	</g>
	<g>
		<path class="st9" d="M1135.7,1077.4c-9.1,15.7-18.7,31.1-28.7,46.3c-10.1,15.1-20.5,30-31.4,44.6c-10.8,14.6-22.2,28.8-33.9,42.7
			c-11.7,13.9-23.8,27.5-36.2,40.8c-3.1,3.3-6.3,6.6-9.4,9.8c-3.2,3.3-6.3,6.4-9.3,9.8c-3,3.4-5.7,6.9-8.4,10.6
			c-2.6,3.7-5,7.4-7.3,11.3c-4.5,7.8-8.2,16-11.1,24.5c-0.7,2.1-1.3,4.3-2,6.4c-0.5,2.2-1.1,4.3-1.6,6.5c-1,4.4-2,8.8-2.8,13.3
			c-0.7,4.4-1.4,8.9-1.6,13.4l-0.1,1.7l0,1.7l-0.1,3.4l0.1,3.4c0,1.1,0,2.2,0.2,3.4c0.7,8.9,2.6,17.8,6.3,26l1.5,3c0.5,1,1,2,1.6,3
			l1.7,2.9c0.3,0.5,0.6,1,0.9,1.4l1,1.4c2.6,3.7,5.6,7.1,8.8,10.2c6.5,6.3,14.2,11.3,22.4,15.2c-4.2-1.8-8.2-3.9-12.1-6.3
			c-3.8-2.4-7.5-5.2-10.9-8.3c-3.4-3.1-6.4-6.5-9.2-10.1l-1-1.4c-0.3-0.5-0.6-1-0.9-1.4l-1.9-2.9c-0.7-0.9-1.2-2-1.7-3l-1.6-3.1
			c-4-8.3-6.1-17.4-6.9-26.5c-0.1-1.1-0.2-2.3-0.2-3.4l-0.1-3.4l0-3.4l0-1.7l0.1-1.7c0.2-4.6,0.8-9.1,1.4-13.6
			c0.7-4.5,1.6-9,2.6-13.4c0.5-2.2,1.1-4.4,1.6-6.7c0.6-2.2,1.3-4.4,2-6.6c2.9-8.7,6.7-17.1,11.2-25.1c2.3-4,4.8-7.8,7.4-11.6
			c2.7-3.7,5.5-7.3,8.5-10.8c3-3.5,6.2-6.8,9.3-10c3.1-3.3,6.3-6.6,9.4-9.9c12.5-13.2,24.6-26.7,36.3-40.5
			c11.8-13.8,23-28,34.1-42.3c11.1-14.4,21.7-29.1,32-44C1116.2,1108,1126.1,1092.8,1135.7,1077.4z"/>
	</g>
	<g>
		<path class="st9" d="M1052.3,1196.2c-7.6,19-14.6,38.2-20.7,57.7c-3.1,9.8-6,19.6-8.7,29.4c-2.7,9.9-5.2,19.8-7.5,29.7
			c-4.7,19.9-8.4,40-11.5,60.2c-3,20.2-5.2,40.5-6.5,60.9l0-0.1c0.1,7.8,0.7,15.6,1.9,23.3c1.1,7.7,2.9,15.4,5.2,22.8
			c2.3,7.5,5.2,14.7,8.6,21.7c1.7,3.5,3.6,6.9,5.5,10.4c1.9,3.4,3.9,6.8,6,10.1c2.1,3.3,4.3,6.5,6.8,9.4c2.5,3,5.2,5.7,8.1,8.2
			c2.9,2.5,6.1,4.6,9.5,6.4l1.3,0.7l1.3,0.6c0.9,0.4,1.7,0.8,2.6,1.1c1.8,0.6,3.6,1.4,5.5,1.8c7.4,2.1,15.2,2.6,22.9,1.9
			c7.7-0.7,15.2-2.7,22.4-5.7l0.2,2.8c-7.6-2.1-14.9-5-21.9-8.7c-7-3.6-13.6-7.9-19.7-12.9c-6.1-5-11.6-10.7-16.4-16.9l-3.5-4.7
			c-1.1-1.6-2.1-3.3-3.2-5c-0.5-0.8-1.1-1.6-1.5-2.5l-1.4-2.6l-0.7-1.3l-0.6-1.3l-1.3-2.7c-3.3-7.1-5.8-14.7-7.4-22.4
			c-0.8-3.9-1.4-7.7-1.7-11.7c-0.3-3.9-0.5-7.8-0.5-11.8c0.1-7.9,0.9-15.7,2.5-23.4c1.6-7.7,3.8-15.2,6.9-22.5l2.1-4.9l0.4,5.3
			c0.8,9.8,2.3,19.5,4.7,28.9c2.4,9.5,6,18.6,10.7,27.1c4.7,8.5,10.8,16.2,18.1,22.8c3.6,3.3,7.4,6.4,11.2,9.5
			c3.8,3.2,7.6,6.4,11.2,9.8c7.2,6.8,14,14,20.4,21.5c3.2,3.8,6.3,7.6,9.2,11.7c2.9,4,5.6,8.2,7.7,12.8c1.1,2.3,1.9,4.7,2.5,7.1
			l0.7,3.7c0.2,1.2,0.3,2.5,0.5,3.7c0.4,5,0.2,10-0.7,14.9c-1.7,9.8-5.6,19.2-10.7,27.6l-0.3-0.8c6.4,1.4,13.3,0.9,19.4-1.7
			c6.1-2.5,11.4-6.9,14.8-12.6c3.4-5.7,4.8-12.5,4-19.1c-0.8-6.6-3.6-13-8.1-17.9c4.5,4.9,7.5,11.2,8.4,17.9
			c0.9,6.6-0.4,13.6-3.8,19.4c-3.4,5.8-8.8,10.5-15,13.1c-6.2,2.7-13.3,3.3-19.9,1.9l-0.7-0.1l0.4-0.6c5-8.4,8.7-17.7,10.2-27.3
			c0.8-4.8,1-9.7,0.5-14.6c-0.2-1.2-0.3-2.4-0.5-3.6l-0.7-3.6c-0.5-2.4-1.4-4.6-2.4-6.8c-2.1-4.4-4.8-8.5-7.6-12.5
			c-2.9-4-6-7.8-9.2-11.5c-6.4-7.4-13.2-14.6-20.4-21.2c-3.6-3.3-7.3-6.5-11.1-9.6c-3.8-3.1-7.7-6.2-11.4-9.5
			c-7.4-6.6-13.8-14.5-18.7-23.2c-5-8.7-8.6-18.1-11.1-27.7c-2.5-9.6-4.1-19.5-4.9-29.4l2.5,0.4c-3,7-5.1,14.4-6.7,22
			c-1.5,7.5-2.3,15.2-2.4,22.9c0,3.8,0.2,7.7,0.5,11.5c0.4,3.8,1,7.6,1.7,11.3c1.6,7.5,4,14.8,7.2,21.7l1.3,2.6l0.6,1.3l0.7,1.3
			l1.4,2.5c0.4,0.8,1,1.6,1.5,2.4c1,1.6,2,3.2,3.1,4.8l3.4,4.6c4.7,6,10.1,11.5,16,16.4c5.9,4.8,12.4,9.1,19.2,12.6
			c6.8,3.5,13.9,6.4,21.3,8.5l4.1,1.1l-3.9,1.6c-7.4,3-15.2,5.1-23.2,5.8c-8,0.7-16.1,0.2-23.9-2.1c-2-0.5-3.8-1.3-5.7-1.9
			c-0.9-0.3-1.8-0.8-2.8-1.2l-1.4-0.6l-1.3-0.7c-3.6-1.8-6.9-4.1-10-6.7c-3.1-2.6-5.9-5.5-8.4-8.6c-2.5-3.1-4.8-6.4-7-9.7
			c-2.1-3.4-4.1-6.8-6-10.2c-1.9-3.4-3.8-6.9-5.5-10.5c-3.5-7.1-6.4-14.5-8.7-22.1c-4.7-15.2-6.9-31-7-46.9l0-0.1l0,0
			c1.5-20.4,3.8-40.8,7-61c3.2-20.2,7.1-40.4,11.9-60.3c4.8-19.9,10.4-39.6,16.8-59c3.2-9.7,6.6-19.4,10.2-29
			C1044.5,1215.2,1048.3,1205.7,1052.3,1196.2z"/>
	</g>
	<g>
		<path class="st9" d="M1137.8,1516.8c4.1,13.6,11,26.3,20.1,37c9,10.8,20.6,19.5,33.6,24.6c3.2,1.3,6.6,2.4,10,3.3l2.5,0.7
			c0.8,0.2,1.7,0.3,2.6,0.5c1.7,0.3,3.4,0.7,5.2,0.9c6.9,0.9,14,0.9,20.9,0.2c6.9-0.7,13.8-2.3,20.4-4.5c6.6-2.3,13-5.2,19-8.8
			l1,2.7c-6.3,0.9-12.6,1.1-18.8,0.8c-6.3-0.3-12.5-1.1-18.6-2.6c-3.1-0.7-6.1-1.5-9.1-2.5c-3-1-5.9-2.1-8.8-3.4
			c-5.7-2.6-11.2-5.7-16.2-9.5c-1.3-0.9-2.5-1.9-3.7-2.9l-1.8-1.5l-1.7-1.6c-1.2-1-2.3-2.2-3.4-3.3l-1.7-1.7c-0.6-0.6-1-1.2-1.6-1.8
			c-4.2-4.7-7.9-9.8-10.9-15.2c-3.1-5.4-5.6-11.2-7.5-17.1c-1-2.9-1.8-6-2.5-9c-0.7-3-1.2-6.1-1.6-9.2c1,6.1,2.7,12.1,4.8,17.9
			c2.1,5.8,4.8,11.4,8,16.6c6.4,10.5,14.9,19.7,24.9,26.8c10,7.1,21.5,11.9,33.4,14.5c11.9,2.6,24.4,3.2,36.4,1.5l7-1l-6,3.7
			c-6.2,3.8-12.8,6.8-19.6,9.1c-6.8,2.3-13.9,3.9-21.1,4.6c-7.2,0.7-14.4,0.6-21.6-0.4c-1.8-0.3-3.5-0.7-5.3-1
			c-0.9-0.2-1.8-0.3-2.6-0.6l-2.6-0.7l-2.6-0.7c-0.9-0.2-1.7-0.5-2.6-0.8c-1.7-0.6-3.4-1.2-5-2c-13.3-5.6-24.9-14.7-33.9-25.9
			c-4.5-5.6-8.2-11.7-11.5-18.1C1142.1,1530.4,1139.5,1523.7,1137.8,1516.8z"/>
	</g>
	<g>
		<path class="st9" d="M1243.1,1572c-6-6.8-11.1-14.5-15.3-22.7c-2.1-4.1-3.9-8.3-5.6-12.6c-1.6-4.3-3-8.7-4.1-13.1
			c-2.2-8.9-3.5-18-3.6-27.2c-0.2-9.1,0.7-18.3,2.6-27.2c-0.8,9.1-0.9,18.1-0.3,27.1c0.3,4.5,0.8,9,1.5,13.4
			c0.3,2.2,0.8,4.4,1.2,6.6c0.5,2.2,0.9,4.4,1.5,6.6c1.1,4.4,2.4,8.7,3.9,12.9c1.5,4.2,3.2,8.4,5,12.5
			C1233.7,1556.5,1238.1,1564.4,1243.1,1572z"/>
	</g>
	<g>
		<path class="st9" d="M1215.6,1489.2c7.9,9.8,16.6,18.9,26.2,27.1c4.8,4.1,9.7,7.9,14.9,11.5c5.1,3.6,10.4,7,15.9,10.1
			c2.7,1.6,5.5,3,8.3,4.5c2.8,1.4,5.6,2.8,8.5,4c5.7,2.5,11.6,4.8,17.5,6.8c11.9,4,24.1,6.8,36.5,8.5l-1,2.3
			c-19.8-17.3-37.9-36.6-53.8-57.6c-4-5.3-7.8-10.6-11.4-16.1l-5.4-8.2c-0.4-0.7-0.9-1.4-1.3-2.1l-1.3-2.1l-2.5-4.2l-5-8.5l-4.7-8.7
			l-2.3-4.4l-1.2-2.2l-1.1-2.2l-4.3-8.9c-0.7-1.5-1.5-3-2.1-4.5l-1.9-4.5l-3.9-9.1c-1.2-3.1-2.4-6.1-3.5-9.2
			c-1.2-3.1-2.4-6.1-3.3-9.3l-3.1-9.4c-1-3.1-1.9-6.3-2.8-9.4c-1.9-6.3-3.4-12.7-5.1-19c-6.1-25.6-9.7-51.7-10.8-77.9
			c1,13.1,2.5,26.1,4.6,39c1.1,6.5,2.2,12.9,3.6,19.3c0.7,3.2,1.3,6.4,2.1,9.6l2.3,9.6c1.7,6.3,3.3,12.7,5.3,18.9
			c1,3.1,1.9,6.3,2.9,9.4l3.2,9.3c1,3.1,2.3,6.1,3.5,9.2l3.6,9.1l3.9,9l2,4.5c0.7,1.5,1.4,2.9,2.1,4.4l4.3,8.8l1.1,2.2l1.2,2.2
			l2.3,4.3l4.7,8.6l5,8.4l2.5,4.2l1.3,2.1c0.4,0.7,0.9,1.4,1.3,2l5.4,8.2c3.5,5.5,7.4,10.7,11.3,16c15.7,20.9,33.5,40.2,53.1,57.5
			l3.3,2.9l-4.3-0.6c-6.3-0.9-12.5-2.1-18.7-3.5c-6.2-1.5-12.2-3.3-18.2-5.4c-6-2.1-11.8-4.5-17.6-7.2c-2.9-1.3-5.7-2.8-8.5-4.2
			c-2.8-1.5-5.6-3-8.3-4.6c-10.9-6.3-21.1-13.9-30.5-22.3C1231.7,1508.6,1223.1,1499.3,1215.6,1489.2z"/>
	</g>
	<path class="st8" d="M1143.9,1101.6c-9.4,42.4-0.6,70.7,6.6,86.1c2.8,5.9,11.4,17.4,28.5,40.1c39.9,53,46.9,59.1,57.2,63.4
		c9.4,3.9,27.4,8.6,55.3-0.3"/>
	<g>
		<path class="st9" d="M1146.8,1178.9c-4.9,13.6-9,27.4-12.2,41.5c-1.6,7-2.9,14.1-4,21.2c-1.1,7.1-2.1,14.3-2.7,21.4
			c-1.3,14.3-1.7,28.7-1.2,43.1c0.6,14.4,2.2,28.7,4.5,42.9l2,10.6c0.3,1.8,0.7,3.5,1.1,5.3l1.2,5.2l1.2,5.2c0.4,1.7,1,3.5,1.5,5.2
			l1.5,5.2c0.5,1.7,0.9,3.5,1.5,5.2c4.3,13.7,9.6,27.1,15.6,40.1c12.1,26.1,27.6,50.6,46.1,72.6l2.9,3.5l-4.3-1.4
			c-6-2-11.9-4.4-17.6-7.2c-5.7-2.8-11.2-6-16.5-9.5c-5.3-3.5-10.3-7.4-15.1-11.6c-2.4-2.1-4.7-4.3-6.9-6.5c-2.2-2.3-4.4-4.5-6.5-7
			c-2.1-2.4-4.1-4.9-6-7.3c-1-1.2-1.9-2.6-2.8-3.8l-1.4-1.9l-1.3-2c-0.8-1.3-1.8-2.6-2.5-4l-2.4-4.1c-1.5-2.8-3-5.6-4.4-8.4
			c-5.5-11.4-9.5-23.5-11.7-35.9c1.3,6.2,3.1,12.2,5.2,18.1c2.1,5.9,4.6,11.7,7.4,17.3c1.4,2.8,3,5.5,4.5,8.3l2.5,4
			c0.8,1.3,1.7,2.6,2.6,3.9c3.6,5.2,7.4,10.1,11.6,14.8c2,2.4,4.3,4.6,6.5,6.8c2.3,2.1,4.5,4.3,6.9,6.3c4.8,4.1,9.8,7.8,15,11.2
			c10.5,6.8,21.9,12.2,33.7,16.1l-1.4,2.1c-18.7-22.1-34.5-46.8-46.8-73l-2.3-4.9l-2.1-5c-1.4-3.3-2.9-6.7-4.1-10.1
			c-1.2-3.4-2.6-6.8-3.8-10.2l-3.4-10.3c-0.6-1.7-1-3.5-1.5-5.2l-1.5-5.2c-0.5-1.7-1-3.5-1.4-5.2l-1.2-5.3l-1.2-5.3
			c-0.4-1.8-0.8-3.5-1.1-5.3l-2-10.7c-0.4-1.8-0.6-3.6-0.8-5.4l-0.7-5.4l-0.7-5.4c-0.2-1.8-0.3-3.6-0.5-5.4l-0.5-5.4
			c-0.1-1.8-0.4-3.6-0.4-5.4l-0.5-10.9c-0.3-14.5,0.2-29,1.7-43.4c0.7-7.2,1.8-14.4,3-21.5c1.3-7.1,2.8-14.2,4.5-21.2l1.3-5.3
			c0.4-1.8,1-3.5,1.4-5.2c0.9-3.5,2-6.9,3.1-10.4C1141.7,1192.4,1144.2,1185.6,1146.8,1178.9z"/>
	</g>
	<path class="st8" d="M1156.7,1433.9c-2.9-24.5-4.4-59.8,3.3-101.1c7.1-38.4,19.7-68.8,30.4-90"/>
	<path class="st8" d="M1314.2,1534.8c10.4,6.5,27.6,15.2,50.3,18.4c11.5,1.6,21.8,1.4,30,0.6c-10.5-6.8-33.7-23.7-48.8-54.9
		c-18.4-38.1-13-73.3-10.7-85.1c1.8,13.8,8.3,48.2,36.3,78.7c17.5,19,36.5,29.1,48.5,34.2"/>
	<g>
		<path class="st9" d="M1231.4,1052.7c17.7-21.5,34.6-43.7,50.6-66.6c16-22.8,31.2-46.3,45.3-70.3c14.2-24,27.4-48.6,39.7-73.6
			c6.1-12.5,12.1-25.1,17.8-37.9c2.8-6.4,5.6-12.8,8.3-19.2c2.7-6.4,5.4-12.9,8-19.3l1.9,0.8c-2.5,6.5-5.1,13-7.8,19.5
			c-2.7,6.5-5.4,12.9-8.2,19.3c-5.6,12.8-11.4,25.5-17.6,38.1c-12.3,25.1-25.5,49.8-39.7,73.8c-14.2,24.1-29.3,47.6-45.4,70.5
			c-16,22.9-32.9,45.2-50.7,66.8L1231.4,1052.7z"/>
	</g>
	<g>
		<path class="st9" d="M1434.5,639.3c-6.4,14.7-11.9,29.7-16.4,45c-1.2,3.8-2.1,7.7-3.2,11.5c-0.9,3.9-1.9,7.7-2.8,11.6
			c-0.8,3.9-1.8,7.8-2.5,11.7l-1.1,5.9c-0.4,2-0.8,3.9-1,5.9c-2.6,15.7-4.2,31.6-4.8,47.6c-0.1,4-0.1,8-0.2,12l0,3l0.1,3l0.1,6
			c0.1,2,0,4,0.2,6l0.4,6c0.3,4,0.5,8,0.8,11.9l1.3,11.9c0.2,2,0.4,4,0.7,5.9l0.9,5.9l0.9,5.9c0.3,2,0.6,3.9,1,5.9l2.4,11.7
			c3.6,15.5,8,30.8,13.4,45.8c10.8,29.9,25.3,58.6,43.2,85l-2.3,1.2c-2.5-7.2-4.8-14.5-6.9-21.8c-2.1-7.3-4-14.7-5.6-22.1
			c-3.3-14.9-5.8-29.9-7.5-45c-1.7-15.1-2.4-30.4-2.3-45.6c0.1-15.2,1-30.4,2.9-45.5c-1.4,15.1-2.1,30.3-1.9,45.5
			c0.2,15.2,1.3,30.3,3.1,45.4c1.8,15,4.5,30,8,44.7c1.7,7.4,3.7,14.7,5.9,21.9c2.1,7.3,4.5,14.5,7,21.6l3.3,9.4l-5.6-8.2
			c-18.1-26.5-32.8-55.3-43.8-85.4c-5.4-15.1-9.8-30.6-13.3-46.2l-2.4-11.8c-0.4-2-0.7-3.9-1-5.9l-0.9-5.9l-0.9-5.9
			c-0.3-2-0.5-4-0.7-6l-1.3-12c-0.3-4-0.5-8-0.8-12l-0.4-6c-0.1-2-0.1-4-0.1-6l-0.1-6l0-3l0.1-3c0.1-4,0.2-8,0.3-12
			c0.7-16,2.6-32,5.3-47.8c2.8-15.8,6.6-31.4,11.5-46.6c1.2-3.8,2.4-7.6,3.8-11.4c0.7-1.9,1.3-3.8,2-5.7l2.1-5.6
			C1427.9,653.9,1431.1,646.6,1434.5,639.3z"/>
	</g>
	<g>
		<path class="st9" d="M1445,722.5c-1.1,13.8-1.7,27.6-1.6,41.5c0,13.8,0.6,27.7,1.8,41.4c1.1,13.8,2.5,27.6,4.5,41.2
			c1,6.8,2.2,13.6,3.6,20.4c1.4,6.8,3,13.5,4.7,20.2c3.5,13.3,7.8,26.5,12.7,39.4c2.5,6.4,5.2,12.8,7.8,19.2
			c2.7,6.4,5.3,12.9,7.4,19.6c2.1,6.7,3.6,13.5,4.6,20.5c0.9,6.9,1.5,13.9,1.6,20.9c0.2,14-1.3,27.9-4.4,41.6l-2.3-1.4
			c18-14.9,34.5-31.4,49.3-49.5c14.8-18,27.7-37.6,38.8-58.1c0.7-1.3,1.4-2.5,2.1-3.9l2-3.9c1.3-2.6,2.7-5.2,3.9-7.8l3.7-8
			c0.6-1.3,1.2-2.7,1.8-4l1.7-4c4.5-10.8,8.5-21.8,11.9-32.9c3.4-11.2,6.4-22.5,8.8-33.9c2.4-11.5,4.2-23,5.6-34.6
			c-2.1,23.3-6.5,46.5-13,69c-3.2,11.3-7.2,22.3-11.6,33.2l-1.7,4.1c-0.5,1.4-1.1,2.7-1.7,4.1l-3.6,8c-1.2,2.7-2.6,5.3-3.8,7.9
			l-1.9,4c-0.6,1.3-1.4,2.6-2,3.9l-4.1,7.8c-1.4,2.6-2.9,5.1-4.4,7.6l-2.2,3.8c-0.7,1.3-1.5,2.5-2.3,3.7c-1.6,2.5-3.1,5-4.7,7.4
			c-6.5,9.8-13.4,19.3-20.9,28.4c-14.8,18.2-31.4,35-49.5,50.1l-3.3,2.7l0.9-4.2c3-13.4,4.5-27.2,4.3-40.9
			c-0.2-13.7-1.8-27.5-5.9-40.6c-2-6.5-4.6-12.9-7.2-19.3c-2.6-6.4-5.3-12.8-7.8-19.3c-4.9-13-9.2-26.2-12.6-39.7
			c-1.7-6.7-3.2-13.5-4.6-20.3c-1.3-6.8-2.5-13.7-3.4-20.5c-1.9-13.7-3.1-27.6-4.1-41.4c-1-13.8-1.3-27.7-1.1-41.6
			C1442.7,750.1,1443.5,736.3,1445,722.5z"/>
	</g>
	<g>
		<path class="st9" d="M1600.4,877.1c-0.1,7-0.3,14-1,20.9c-0.7,7-1.6,13.9-2.8,20.8c-2.5,13.8-6.1,27.3-11,40.5
			c-2.5,6.6-5.1,13-8.1,19.4c-3,6.3-6.3,12.5-9.8,18.6c-7,12.1-15.1,23.6-24.1,34.4l-1.7-1.8c13.9-11.2,27-23.5,38.9-36.8
			c11.9-13.3,22.6-27.7,32-42.9c9.2-15.3,17.3-31.3,23.8-47.9c6.5-16.6,11.5-33.9,15-51.4c3.5-17.5,5.5-35.3,6.3-53.2
			c0.8-17.9,0.2-35.8-1.5-53.6c-3.5-35.6-11.2-70.9-23.3-104.7c6.5,16.7,11.7,34,15.9,51.4c1.1,4.4,2,8.8,3,13.1
			c0.9,4.4,1.8,8.8,2.5,13.2c1.6,8.9,2.8,17.8,3.7,26.7c1.9,17.9,2.7,35.9,2.1,53.9c-0.6,18-2.7,36-6.1,53.6
			c-3.5,17.7-8.4,35.1-14.9,51.9c-1.5,4.3-3.4,8.4-5.2,12.5c-1.7,4.2-3.8,8.2-5.7,12.3l-1.5,3l-0.7,1.5l-0.8,1.5l-3.3,5.9
			c-1.1,2-2.1,4-3.3,5.9l-3.5,5.8c-9.5,15.3-20.3,29.8-32.4,43.2c-12.1,13.4-25.3,25.7-39.4,36.9l-1.7-1.8
			c9-10.6,17.2-21.9,24.3-33.8c3.6-6,6.9-12.1,9.9-18.3c3-6.3,5.8-12.7,8.3-19.1c5-13,8.9-26.4,11.6-40.1
			C1598.4,905,1600,891.1,1600.4,877.1z"/>
	</g>
	<g>
		<path class="st9" d="M1660.3,775.9c11.6,23.1,23.9,45.9,37.2,68c6.6,11.1,13.5,22,20.6,32.8c7.1,10.8,14.5,21.4,21.9,32
			c14.9,21.1,31,41.3,48.5,60.4c17.5,19,36.1,37,55.8,53.7l-1.9,2.3c-19.8-16.8-38.5-34.8-56.1-54c-17.5-19.1-33.8-39.5-48.7-60.7
			c-7.5-10.6-14.8-21.2-22-32.1c-7.1-10.8-14-21.8-20.7-33c-6.7-11.1-13-22.4-19.2-33.8c-6.2-11.4-12.1-22.9-17.8-34.6L1660.3,775.9
			z"/>
	</g>
	<g>
		<path class="st9" d="M1561.7,547.4c17.5,0.7,34.9,3.1,51.9,7.2c17,4.1,33.6,10,49.3,17.8l5.9,3c1.9,1,3.8,2.1,5.8,3.2l2.9,1.6
			l2.8,1.7c1.9,1.1,3.8,2.3,5.6,3.4c7.4,4.8,14.5,9.9,21.3,15.4c6.8,5.6,13.4,11.4,19.6,17.6c1.6,1.5,3.1,3.1,4.6,4.7
			c1.5,1.6,3.1,3.1,4.5,4.8l4.4,4.9l4.2,5c22.5,27,40,57.7,54,89.9c13.9,32.2,24.2,65.8,32.1,99.9c7.8,34.1,13.1,68.8,16.3,103.7
			c1.6,17.4,2.6,34.9,2.9,52.4c0.4,17.5-0.1,35.1-1.8,52.5c-0.3,4.4-1,8.7-1.5,13.1c-0.2,2.2-0.6,4.3-0.9,6.5
			c-0.3,2.2-0.6,4.3-1,6.5c-0.8,4.3-1.5,8.6-2.5,12.9c-0.9,4.3-2,8.6-3,12.8c-2.3,8.5-4.9,16.9-7.9,25.1c-3,8.2-6.4,16.4-10.2,24.3
			c-15,31.8-35.7,60.8-60.5,85.7l-1.9-2.7c14.7-7.2,28.9-15.3,42.4-24.5l5.1-3.5l5-3.6c3.3-2.3,6.5-4.9,9.8-7.4
			c6.4-5.1,12.7-10.3,18.7-15.9c12-11,23.3-23,33.5-35.7c10.2-12.7,19.5-26.3,27.6-40.4l2.6,1.5c-8.2,14.3-17.5,28-27.8,40.9
			c-10.3,12.9-21.6,24.9-33.8,36.1c-6,5.6-12.4,10.9-18.8,16.1c-3.3,2.5-6.5,5.1-9.9,7.5l-5,3.6l-5.1,3.5
			c-13.7,9.3-28,17.5-42.8,24.7l-9,4.4l7-7.1c24.6-24.6,45-53.3,59.9-84.7c3.7-7.8,7.1-15.9,10.1-24c3-8.2,5.6-16.5,7.8-24.9
			c1.1-4.2,2.1-8.4,3-12.7c1-4.2,1.7-8.5,2.5-12.8c0.4-2.1,0.7-4.3,1-6.4c0.3-2.2,0.7-4.3,0.9-6.5c0.5-4.3,1.1-8.6,1.5-13
			c1.7-17.3,2.2-34.8,1.9-52.2c-0.3-17.4-1.3-34.9-2.9-52.2c-3.1-34.7-8.4-69.3-16.1-103.3c-7.7-34-18-67.5-31.7-99.5
			c-13.7-32-31-62.6-53.2-89.5l-4.2-5l-4.3-4.9c-1.4-1.6-2.9-3.2-4.4-4.8c-1.5-1.6-3-3.2-4.5-4.7c-6.1-6.2-12.6-12-19.3-17.6
			c-6.8-5.5-13.8-10.7-21-15.5c-1.8-1.2-3.7-2.3-5.5-3.5l-2.8-1.7l-2.8-1.6c-1.9-1.1-3.8-2.2-5.7-3.2l-5.8-3
			c-15.6-7.8-32-13.9-48.9-18.3C1596.5,551,1579.1,548.4,1561.7,547.4z"/>
	</g>
	<path class="st8" d="M1917.6,842.2c10.4,24.2,27.7,60.9,54.4,102.9c16.6,26,23.2,32.8,50.5,71.6c22.4,31.9,50.9,72.3,78,119.3
		c37.5,65.1,55.9,97.9,56.5,129c1.1,58.3-37.6,106-69.2,135.4"/>
	<path class="st8" d="M2091.2,1371.9c43.2-74.8,31.5-125.8,26.5-142.3c-7.4-24.3-22.3-45-52.1-86.4c-24.1-33.4-36.5-45.2-53.8-67.5
		c-21-27-47.9-67.7-70.7-125.7"/>
	<g>
		<path class="st9" d="M2033.7,1105.3c6,17.1,11.8,34.2,17.3,51.5c5.5,17.2,10.8,34.5,15.7,52c4.9,17.4,9.6,34.9,13.8,52.5
			c2.1,8.8,4,17.7,5.7,26.6c1.7,8.9,3.2,17.9,4.2,26.9c1.9,18,3,36.2,2.3,54.4c-0.3,9.1-1.1,18.2-2.7,27.2c-0.8,4.5-1.9,8.9-3,13.3
			c-1.1,4.4-2.3,8.8-3.7,13.1c-2.7,8.7-6.3,17.2-10.8,25.2c-4.6,7.9-10.4,15.2-17.1,21.5c-6.7,6.3-14.4,11.5-22.7,15.5
			c-8.2,4-17.1,6.9-26,8.6l-4.6,0.9l3.4-3.2c16.5-15.8,30.2-34.4,40-55c4.9-10.3,8.9-21,11.8-32.1c2.9-11,4.7-22.4,5.4-33.8
			c0.6-11.4,0.2-22.9-1.3-34.2c-1.6-11.3-4-22.6-7.5-33.5c-0.8-2.7-1.8-5.4-2.7-8.2c-1-2.7-2-5.4-3.1-8c-2.1-5.3-4.5-10.6-7-15.7
			c-5.1-10.3-10.9-20.2-17.7-29.5c6.9,9.2,13,19,18.3,29.2c2.6,5.1,5.1,10.3,7.3,15.6c1.1,2.6,2.2,5.3,3.2,8c1,2.7,2,5.4,2.9,8.2
			c3.6,10.9,6.3,22.2,7.9,33.6c1.6,11.4,2.2,23,1.6,34.5c-0.5,11.5-2.3,23-5.1,34.2c-2.8,11.2-6.7,22.2-11.7,32.6
			c-9.9,20.9-23.8,39.9-40.4,55.9l-1.2-2.4c8.8-1.7,17.3-4.5,25.3-8.4c8-3.9,15.4-9,21.9-15.1c6.5-6.1,12-13.2,16.5-20.9
			c4.4-7.7,7.9-16,10.6-24.6c1.4-4.3,2.6-8.6,3.7-13c1.1-4.4,2.2-8.7,3-13.1c1.6-8.8,2.4-17.8,2.8-26.8c0.7-18-0.3-36.1-2.2-54
			c-2-17.9-5.5-35.7-9.4-53.3c-4-17.6-8.5-35.1-13.3-52.6c-4.8-17.4-9.8-34.8-15-52.1C2044.8,1139.7,2039.3,1122.4,2033.7,1105.3z"
			/>
	</g>
	<g>
		<path class="st9" d="M1692.6,1519.9c7-2.2,13.9-4.7,20.4-7.9c6.6-3.1,12.9-6.8,18.9-10.9c11.9-8.3,22.5-18.4,31.2-30
			c4.4-5.8,8.2-11.9,11.6-18.3c3.5-6.4,6.4-13,9-19.8c2.6-6.8,4.7-13.8,6.4-20.9c1.8-7.1,3.1-14.3,4-21.6
			c-0.6,14.7-3.5,29.3-8.2,43.2c-4.7,14-11.6,27.3-20.4,39.2c-4.5,5.9-9.4,11.5-14.8,16.5l-2,1.9c-0.7,0.6-1.4,1.2-2.1,1.8l-2.1,1.8
			l-2.2,1.7c-2.9,2.3-5.9,4.4-9,6.4C1720.7,1511.1,1706.9,1516.7,1692.6,1519.9z"/>
	</g>
	<g>
		<path class="st9" d="M1776.6,1336.2c8.7,16.8,14.7,35,18,53.7l0.6,3.5l0.5,3.5c0.3,2.4,0.7,4.7,0.8,7.1l0.6,7.1l0.2,7.1
			c0.1,2.4,0,4.8,0,7.1c-0.1,2.4,0,4.8-0.3,7.1l-0.5,7.1c-0.2,2.4-0.6,4.7-0.9,7.1l-0.5,3.5c-0.2,1.2-0.4,2.3-0.6,3.5
			c-0.5,2.3-0.9,4.7-1.3,7l-1.7,6.9c-0.1,0.6-0.3,1.2-0.4,1.7l-0.5,1.7l-1,3.4c-2.8,9.1-6.2,18-10.3,26.6
			c-8.2,17.2-19.1,33.1-32.1,47l-0.9-2.3c16.7,0.4,33.6-1.8,49.4-7c7.9-2.6,15.6-5.9,23-9.9c7.3-4.1,14.2-8.8,20.6-14.2
			c12.8-10.7,23.3-24,31.8-38.5c4.3-7.2,8-14.7,11.5-22.4c1.8-3.8,3.5-7.7,5.1-11.5c0.8-1.9,1.7-3.8,2.4-5.8l2.3-5.9
			c5.8-15.8,10.1-32.1,12.9-48.6c1.4-8.3,2.4-16.6,3.1-25c0.6-8.4,1-16.8,1-25.2c0-8.4-0.3-16.8-1-25.2c-0.6-8.4-1.5-16.8-2.7-25.1
			c-2.4-16.7-6-33.2-10.5-49.5c4.9,16.1,8.8,32.6,11.5,49.3c2.7,16.7,4.3,33.6,4.5,50.5c0.1,8.5-0.1,16.9-0.7,25.4
			c-0.6,8.4-1.6,16.9-2.9,25.2c-1.3,8.4-3.1,16.7-5.1,24.9l-1.6,6.1l-1.8,6.1c-0.6,2-1.3,4-2,6c-0.7,2-1.3,4-2.1,6l-2.3,5.9
			c-0.8,2-1.6,3.9-2.4,5.9c-1.6,3.9-3.4,7.8-5.1,11.6c-3.5,7.7-7.3,15.3-11.6,22.6c-8.5,14.7-19.2,28.3-32.3,39.3
			c-6.5,5.5-13.6,10.3-21.1,14.5c-7.5,4.1-15.4,7.5-23.5,10.1c-16.2,5.3-33.4,7.4-50.4,6.9l-3-0.1l2.1-2.2
			c6.4-6.8,12.3-14.2,17.7-21.9c5.3-7.7,10.1-15.9,14.2-24.3c4.1-8.4,7.6-17.2,10.4-26.2l1-3.4l0.5-1.7c0.2-0.6,0.3-1.1,0.4-1.7
			l1.7-6.8c0.5-2.3,0.9-4.6,1.4-6.9c0.2-1.2,0.5-2.3,0.7-3.5l0.5-3.5c2.8-18.6,2.7-37.7-0.2-56.3
			C1790.6,1371.5,1784.8,1353.3,1776.6,1336.2z"/>
	</g>
	<g>
		<path class="st9" d="M1753.3,1547.4c9.9-6.9,19.4-14.4,28.1-22.6c8.8-8.2,17-17,24.4-26.5c14.8-18.9,26.6-40.1,34.6-62.7
			c1.1-2.8,1.9-5.7,2.9-8.5c0.5-1.4,0.8-2.9,1.3-4.3c0.4-1.4,0.9-2.9,1.2-4.3c0.7-2.9,1.5-5.8,2.1-8.7l0.9-4.4l0.8-4.4
			c0.3-1.5,0.5-2.9,0.8-4.4c0.2-1.5,0.5-3,0.7-4.4c0.4-3,0.8-5.9,1.1-8.9c0.6-6,1-12,1.2-18c0.4-12-0.2-24-1.6-36
			c-1.3-12-3.6-23.8-6.6-35.5c1.8,5.7,3.4,11.6,4.7,17.5c1.3,5.9,2.4,11.8,3.3,17.8c0.9,6,1.5,12,1.9,18.1c0.4,6,0.6,12.1,0.6,18.2
			c-0.2,24.2-4.3,48.5-12.4,71.4c-4.1,11.4-9.1,22.6-15.1,33.1c-6,10.6-12.8,20.7-20.5,30c-7.7,9.4-16.1,18.1-25.2,26.1
			c-4.5,4-9.3,7.8-14.1,11.4c-2.4,1.8-4.9,3.5-7.4,5.3l-3.8,2.5L1753.3,1547.4z"/>
	</g>
	<g>
		<path class="st9" d="M1850.5,1506.3c10.1-6.5,19.7-13.7,28.6-21.5c4.5-3.9,8.8-8,13-12.3c4.1-4.3,8.2-8.6,11.9-13.3
			c7.6-9.1,14.4-18.9,20.5-29.2c6.1-10.3,11.3-21,15.8-32.1c-3.4,11.5-8.1,22.7-13.8,33.3c-2.8,5.3-6,10.4-9.4,15.5
			c-3.4,5-7,9.8-10.9,14.5c-7.7,9.3-16.3,17.8-25.7,25.4C1871.3,1494.1,1861.2,1500.8,1850.5,1506.3z"/>
	</g>
	<g>
		<path class="st9" d="M1934.2,1413.4c2.9,9.6,4.5,19.6,4.8,29.6c0.3,10-0.7,20.1-3,29.9c-1.2,4.9-2.6,9.7-4.4,14.4
			c-1.8,4.7-3.9,9.3-6.3,13.8c-4.7,8.9-10.6,17.2-17.5,24.6l-1.4-2c22.6-9.2,43.7-22,62.3-37.7c18.6-15.7,34.8-34.3,47.5-55.1
			c12.7-20.8,22-43.7,27.6-67.4c2.8-11.9,4.7-24,5.8-36.2c1.1-12.2,1.2-24.5,0.5-36.7c1.2,12.2,1.3,24.5,0.6,36.8
			c-0.7,12.3-2.5,24.5-5.1,36.5c-1.3,6-2.9,12-4.7,17.9c-1.8,5.9-3.8,11.7-6.1,17.5c-2.3,5.7-4.7,11.4-7.5,16.9
			c-1.3,2.8-2.8,5.5-4.3,8.2c-0.7,1.4-1.5,2.7-2.3,4c-0.8,1.3-1.5,2.7-2.3,4c-1.6,2.6-3.2,5.3-5,7.8l-2.6,3.8l-2.7,3.8
			c-1.7,2.5-3.7,4.9-5.6,7.4c-1,1.2-1.9,2.4-2.9,3.6l-3,3.5c-8,9.4-16.8,18.1-26.3,26c-18.9,15.8-40.4,28.6-63.2,37.8l-5.4,2.2
			l4-4.2c6.8-7.2,12.7-15.2,17.5-23.9c2.4-4.3,4.5-8.8,6.4-13.4c1.8-4.6,3.3-9.4,4.6-14.2c1.2-4.8,2.1-9.7,2.8-14.6
			c0.6-4.9,0.9-9.9,0.9-14.9c0-5-0.4-10-1-14.9C1936.4,1423.1,1935.5,1418.2,1934.2,1413.4z"/>
	</g>
	<g>
		<path class="st9" d="M1906.9,1524.9c17.8-24.6,32.6-51.3,43.5-79.5c10.9-28.2,18.5-57.7,21.4-87.8l1.1-11.3l0.1-1.4l0.1-1.4
			l0.1-2.8l0.3-5.7l0.3-5.7c0.1-1.9,0-3.8,0-5.7l-0.1-11.3c-0.5-15.1-2-30.2-4.3-45.1c-2.3-14.9-5.8-29.7-10-44.2l-0.8-2.7l-0.9-2.7
			l-1.7-5.4c-1.1-3.6-2.5-7.2-3.7-10.8c-2.6-7.1-5.4-14.2-8.4-21.1c3.3,6.8,6.3,13.8,9.2,20.9c1.3,3.6,2.8,7.1,4,10.7l1.9,5.4
			l0.9,2.7l0.9,2.7c4.6,14.5,8.3,29.3,10.9,44.3c2.6,15,4.1,30.2,4.8,45.4l0.1,11.4c0,1.9,0.1,3.8,0,5.7l-0.2,5.7l-0.2,5.7l-0.1,2.9
			l-0.1,1.4l-0.1,1.4l-1,11.4l-0.3,2.8c-0.1,0.9-0.2,1.9-0.3,2.8l-0.8,5.7c-0.6,3.8-1.1,7.5-1.7,11.3l-2.2,11.2
			c-0.8,3.7-1.7,7.4-2.6,11.1c-3.7,14.8-8.4,29.3-14.2,43.4c-5.8,14.1-12.5,27.8-20.1,41C1924.8,1500.3,1916.3,1513,1906.9,1524.9z"
			/>
	</g>
	<g>
		<path class="st9" d="M1936.4,1059.8l15.1,52.2l7.6,26.1c2.5,8.7,5.1,17.4,7.7,26.1l7.7,26l7.8,26l15.7,52
			c-6.3-17-12.3-34.1-18-51.3c-2.9-8.6-5.6-17.2-8.3-25.9c-2.7-8.7-5.3-17.3-7.9-26c-5.1-17.4-10-34.9-14.6-52.4
			C1944.6,1095.1,1940.3,1077.5,1936.4,1059.8z"/>
	</g>
	<g>
		<path class="st9" d="M1679.5,1498.9c6.8-2.8,13.3-6,19.5-9.8c6.2-3.8,12.1-8,17.6-12.7c5.5-4.7,10.6-9.9,15.1-15.5
			c1.1-1.4,2.3-2.8,3.4-4.2l3.1-4.4c1-1.5,1.9-3.1,2.9-4.6l1.4-2.3c0.5-0.8,1-1.5,1.4-2.3c7-12.6,11.8-26.5,14.1-40.8
			c2.3-14.3,2.5-29,0.3-43.5c0.9,3.6,1.6,7.2,2,10.8c0.5,3.6,0.8,7.3,1,11c0.3,7.3,0,14.7-1,22c-0.9,7.3-2.7,14.5-4.9,21.6l-1.8,5.2
			c-0.7,1.7-1.4,3.4-2.2,5.1l-1.1,2.6c-0.3,0.9-0.8,1.7-1.2,2.5l-2.6,4.9c-7.2,12.9-17,24.4-28.4,33.7
			C1706.7,1487.4,1693.5,1494.5,1679.5,1498.9z"/>
	</g>
	<path class="st8" d="M1036.8,1157c8.8-24.9,17.9-58.4,21.3-98.7c2.6-31.1,1.2-58.5-1.5-80.6"/>
	
		<radialGradient id="SVGID_1_" cx="1373.377" cy="1139.6157" r="75.1496" gradientTransform="matrix(0.9947 -0.1033 0.1033 0.9947 -121.6881 162.6499)" gradientUnits="userSpaceOnUse">
		<stop  offset="0" style="stop-color:#F15B36"/>
		<stop  offset="1" style="stop-color:#FFFFFF"/>
	</radialGradient>
	<path class="st10" d="M1296,1157.5c3.3-8.9,9.1-14.8,15.4-19.4c9-6.5,18.6-11.6,28.8-15.1c0.4,0.9,1.2,1.5,1.9,0.8
		c0.8-0.9,1.8-1.6,2.7-2.3c4.2-1.2,8.5-2.2,12.8-2.9c16.4-2.6,34-1,51.3,7.6c1.1,0.5,1.6-0.6,1.5-1.8c7.7,3.9,15.3,9.1,22.2,16.1
		c6.8,6.8,13.1,15.9,16.6,26.3c3.4,9.9,4,20.2,2.6,29.4c-3.1,19.8-14.6,32.4-27.6,38.8c-13.3,6.5-28.3,7.9-43.5,6.1
		c-15.6-1.8-31.7-7.1-47.1-16.2c-7.2-4.2-14.2-9.3-20.9-15.4c-7.1-6.5-14.1-14.8-17.4-25.8C1292.4,1174.3,1293.2,1165,1296,1157.5z
		 M1410.8,1167.2c0.8,0.3,1.6,0.4,2.3,0.4c0.9,0,1.8-0.1,2.6-0.5c1.3-0.6,2.3-1.9,2.7-3.8c0.2-1.5-0.1-3.3-0.8-4.8
		c-0.8-1.6-2-2.7-3.3-3c-0.5-0.1-0.9-0.1-1.3,0c0,0-0.1,0-0.1,0c-1.1-0.3-2.2,0.2-3.1,0.9c-0.8,0.8-1.5,1.9-1.9,3.2
		c-0.4,1.2-0.5,2.8,0,4.3C1408.4,1165.5,1409.6,1166.7,1410.8,1167.2z M1399.3,1162.7c0.1,0.1,0.2,0.3,0.3,0.4c0,0,0,0,0,0
		c0,0,0,0,0,0c0,0,0.2,0.3,0.2,0.3c0,0,0,0,0,0c0,0,0.2,0.3,0.3,0.3c0,0,0,0,0,0c0,0,0.3,0.2,0.3,0.2c0,0,0,0,0,0s0,0,0,0
		c0,0,0.3,0.1,0.3,0.1c0,0,0,0,0,0c0,0,0,0,0,0c0.1,0,0.2,0,0.3,0c0,0,0,0,0,0c0,0,0,0,0,0c0,0,0.1,0,0.1,0c0.2-0.1,0.3-0.2,0.5-0.4
		c0-0.1,0.1-0.2,0.1-0.3c0.1-0.2,0.1-0.5,0.1-0.8c0-0.1-0.1-0.3-0.1-0.4c-0.1-0.2-0.1-0.4-0.3-0.6c-0.1-0.2-0.2-0.3-0.4-0.4
		c-0.1-0.1-0.2-0.1-0.2-0.1c-0.1-0.2-0.3-0.3-0.4-0.4c-0.2-0.2-0.4-0.2-0.6-0.3c-0.1,0-0.2,0-0.3,0c-0.2,0.1-0.3,0.2-0.5,0.4
		c0,0.1-0.1,0.2-0.1,0.3c-0.1,0.2-0.1,0.4-0.1,0.6c0,0.2,0,0.4,0.1,0.6C1399.1,1162.4,1399.2,1162.6,1399.3,1162.7z"/>
	
		<radialGradient id="SVGID_00000169554201929481214630000012254833320181421982_" cx="1720.4835" cy="1164.9125" r="73.0067" gradientTransform="matrix(0.9947 -0.1033 0.1033 0.9947 -121.6881 162.6499)" gradientUnits="userSpaceOnUse">
		<stop  offset="0" style="stop-color:#F15B36"/>
		<stop  offset="1" style="stop-color:#FFFFFF"/>
	</radialGradient>
	<path style="opacity:0.53;fill:url(#SVGID_00000169554201929481214630000012254833320181421982_);" d="M1791.4,1132.5
		c-5.1-7.7-12-12-19.1-15.1c-10.1-4.3-20.6-7.2-31.3-8.6c-0.2,0.9-0.9,1.6-1.7,1.1c-1-0.6-2-1.1-3.1-1.6c-4.4-0.4-8.7-0.5-13.1-0.3
		c-16.6,0.7-33.5,5.6-48.5,16.9c-0.9,0.7-1.7-0.2-1.8-1.4c-6.7,5.1-13.1,11.4-18.3,19.1c-5.2,7.6-9.4,17.2-10.7,27.6
		c-1.2,9.8,0.3,19.5,3.6,27.8c7.2,17.8,21.1,27.3,35.1,30.8c14.3,3.5,29.4,2,43.8-2.6c14.9-4.7,29.5-12.6,42.7-24
		c6.1-5.3,11.9-11.3,17.2-18.3c5.6-7.4,10.7-16.5,11.6-27.3C1798.4,1147.4,1795.7,1138.9,1791.4,1132.5z M1681.2,1163.3
		c-0.7,0.4-1.4,0.7-2.2,0.8c-0.9,0.2-1.8,0.2-2.6,0c-1.4-0.3-2.7-1.3-3.4-3.1c-0.6-1.4-0.6-3.1-0.2-4.6c0.4-1.7,1.4-2.9,2.6-3.4
		c0.4-0.2,0.9-0.2,1.3-0.2c0,0,0.1,0,0.1-0.1c1-0.4,2.2-0.3,3.2,0.3c1,0.5,1.9,1.4,2.5,2.6c0.6,1.1,1.1,2.5,0.9,3.9
		C1683.2,1161.3,1682.3,1162.6,1681.2,1163.3z M1691.5,1157c0,0.1-0.1,0.3-0.2,0.4c0,0,0,0,0,0c0,0,0,0,0,0c0,0-0.1,0.4-0.1,0.4
		c0,0,0,0,0,0c0,0-0.2,0.3-0.2,0.3c0,0,0,0,0,0c0,0-0.2,0.2-0.2,0.2c0,0,0,0,0,0c0,0,0,0,0,0c0,0-0.3,0.1-0.3,0.1c0,0,0,0,0,0
		c0,0,0,0,0,0c-0.1,0-0.2,0-0.3,0c0,0,0,0,0,0c0,0,0,0,0,0c0,0-0.1,0-0.1,0c-0.2,0-0.4-0.1-0.5-0.3c-0.1-0.1-0.1-0.2-0.2-0.3
		c-0.1-0.2-0.2-0.4-0.2-0.7c0-0.1,0-0.3,0-0.4c0-0.2,0.1-0.4,0.1-0.6c0.1-0.2,0.1-0.3,0.3-0.5c0.1-0.1,0.1-0.1,0.2-0.2
		c0.1-0.2,0.2-0.3,0.3-0.5c0.1-0.2,0.3-0.3,0.5-0.4c0.1,0,0.2,0,0.3,0c0.2,0,0.4,0.1,0.5,0.3c0.1,0.1,0.1,0.2,0.2,0.3
		c0.1,0.1,0.2,0.3,0.2,0.5c0.1,0.2,0.1,0.4,0,0.6C1691.7,1156.6,1691.6,1156.8,1691.5,1157z"/>
	<path class="st9" d="M1540.6,1230.8c-0.5,0.1-2.4-3.9-2.5-8.5c-0.1-2.5,0.5-2.9,0.2-5.9c-0.2-1.8-0.5-2.8-0.1-4.6
		c0.2-0.8,0.6-3.1,1.8-3.3c1.1-0.2,2.5,1.6,3,3c0.6,1.6,0.5,3.1,0.4,3.7c-0.8,6.7,0.1,11-0.7,11.1c-0.7,0.1-1.6-3.8-2.1-3.7
		C1539.9,1222.9,1541.3,1230.7,1540.6,1230.8z"/>
	<path class="st12" d="M1275.9,1090.4c3.1,19,17.5,30.6,26.4,37.8c25,20.3,54.4,20.6,64.5,20.1c4.7-0.2,15.4-2.7,36.7-7.6
		c16-3.7,20.5-5.2,24.6-9.4c7.4-7.6,7.8-18,8.2-29.6c0.3-8.6,0.7-23.4-7-40.3c-14.1-31.3-43.5-42.3-46.7-43.4
		c-3.7-1.3-35.5-12.1-66.8,5.7C1295.1,1035.5,1271.1,1061.8,1275.9,1090.4z"/>
	<path class="st12" d="M1651.4,1044.5c-8.8,13.9-9.3,27.8-9.5,34.7c-0.3,9.2-0.8,27.9,11.9,42.5c9,10.3,20.1,13.4,31.7,16.7
		c9.2,2.6,30.8,8.7,56.2,0.4c6.3-2,38.9-12.6,52.1-45.4c2.3-5.6,9.9-24.5,2.8-45.2c-11-32.5-50.8-48.5-80.1-44.1
		c-14.8,2.2-26.7,9.6-37.6,16.4C1667.9,1027.2,1658.7,1032.9,1651.4,1044.5z"/>
	
		<linearGradient id="SVGID_00000035495532151379746840000005518042562394551206_" gradientUnits="userSpaceOnUse" x1="1376.4327" y1="1116.5409" x2="1404.1505" y2="1013.6168" gradientTransform="matrix(0.9947 -0.1033 0.1033 0.9947 -121.6881 162.6499)">
		<stop  offset="0" style="stop-color:#26FF00"/>
		<stop  offset="2.490711e-02" style="stop-color:#25F700"/>
		<stop  offset="0.1392" style="stop-color:#21D600"/>
		<stop  offset="0.2628" style="stop-color:#1EBB00"/>
		<stop  offset="0.3966" style="stop-color:#1BA600"/>
		<stop  offset="0.546" style="stop-color:#199700"/>
		<stop  offset="0.7233" style="stop-color:#188F00"/>
		<stop  offset="1" style="stop-color:#188C00"/>
	</linearGradient>
	<path style="fill:url(#SVGID_00000035495532151379746840000005518042562394551206_);" d="M1346.4,1018.1
		c-23.3,10.8-27.4,39.9-28.7,48.6c-0.5,3.7-3.7,28.2,11,51.9c4.6,7.4,10.8,17.5,23.6,23.1c18.8,8.3,36.8,0.4,39.9-1
		c15.7-7.2,22.7-20.4,25.4-25.7c12.2-23.8,4.8-48.1,1.6-56.4c-1.8-4.8-13.7-36.3-43.2-43C1372.1,1014.7,1359.5,1012,1346.4,1018.1z"
		/>
	
		<linearGradient id="SVGID_00000024681607988356963060000012312473999996059808_" gradientUnits="userSpaceOnUse" x1="1714.4836" y1="1146.8182" x2="1738.1331" y2="1042.8159" gradientTransform="matrix(0.9947 -0.1033 0.1033 0.9947 -121.6881 162.6499)">
		<stop  offset="0" style="stop-color:#26FF00"/>
		<stop  offset="3.802133e-02" style="stop-color:#24F100"/>
		<stop  offset="0.1413" style="stop-color:#21D200"/>
		<stop  offset="0.2545" style="stop-color:#1DB900"/>
		<stop  offset="0.3791" style="stop-color:#1BA500"/>
		<stop  offset="0.5212" style="stop-color:#199700"/>
		<stop  offset="0.6961" style="stop-color:#188E00"/>
		<stop  offset="1" style="stop-color:#188C00"/>
	</linearGradient>
	<path style="fill:url(#SVGID_00000024681607988356963060000012312473999996059808_);" d="M1681,1017.1
		c-19.6,13.9-22.7,36.4-24.4,48.1c-1.3,9.4-4,28.3,7.3,46.7c2.6,4.2,10.8,17.1,27.4,23.4c2,0.8,27.3,9.9,47.6-4.9
		c14.3-10.5,17.4-26.5,20.1-40.8c1.4-7.4,4.5-24.6-2.8-44.7c-3.9-10.9-9.8-27.2-26.1-34.8C1706.9,999.3,1682.6,1016,1681,1017.1z"/>
	
		<linearGradient id="SVGID_00000132065375989357261820000018420673903902430086_" gradientUnits="userSpaceOnUse" x1="1358.8997" y1="1086.241" x2="1419.047" y2="1086.241" gradientTransform="matrix(0.9947 -0.1033 0.1033 0.9947 -121.6881 162.6499)">
		<stop  offset="0" style="stop-color:#BAD63B"/>
		<stop  offset="4.973461e-02" style="stop-color:#B2D838"/>
		<stop  offset="0.1271" style="stop-color:#9CDD31"/>
		<stop  offset="0.2223" style="stop-color:#78E526"/>
		<stop  offset="0.3318" style="stop-color:#46F016"/>
		<stop  offset="0.4519" style="stop-color:#07FD02"/>
		<stop  offset="0.4646" style="stop-color:#00FF00"/>
		<stop  offset="0.4924" style="stop-color:#17FA07"/>
		<stop  offset="0.5515" style="stop-color:#42F015"/>
		<stop  offset="0.6136" style="stop-color:#67E821"/>
		<stop  offset="0.678" style="stop-color:#85E22A"/>
		<stop  offset="0.7456" style="stop-color:#9DDC32"/>
		<stop  offset="0.8177" style="stop-color:#ADD937"/>
		<stop  offset="0.8975" style="stop-color:#B7D73A"/>
		<stop  offset="1" style="stop-color:#BAD63B"/>
	</linearGradient>
	<path style="fill:url(#SVGID_00000132065375989357261820000018420673903902430086_);" d="M1344.9,1069.5c-11.1,9.2,0.9,37.5,2.4,41
		c4.4,10.4,8,19,17.3,22.6c10.4,4,23.3,0.1,30.9-8.8c6.9-8.1,9.8-20.7,4.3-31c-0.6-1.1-6.6-11.8-18.8-13c-7.2-0.7-11.5,5.5-14.6,3.4
		c-3.5-2.3,0.7-9.7-3.1-14C1359.6,1065.3,1350,1065.2,1344.9,1069.5z"/>
	
		<linearGradient id="SVGID_00000106106657455942338440000011772535215482822529_" gradientUnits="userSpaceOnUse" x1="1701.8235" y1="1138.7549" x2="1748.6747" y2="1088.146" gradientTransform="matrix(0.9947 -0.1033 0.1033 0.9947 -121.6881 162.6499)">
		<stop  offset="0" style="stop-color:#BAD63B"/>
		<stop  offset="4.973461e-02" style="stop-color:#B2D838"/>
		<stop  offset="0.1271" style="stop-color:#9CDD31"/>
		<stop  offset="0.2223" style="stop-color:#78E526"/>
		<stop  offset="0.3318" style="stop-color:#46F016"/>
		<stop  offset="0.4519" style="stop-color:#07FD02"/>
		<stop  offset="0.4646" style="stop-color:#00FF00"/>
		<stop  offset="0.4924" style="stop-color:#17FA07"/>
		<stop  offset="0.5515" style="stop-color:#42F015"/>
		<stop  offset="0.6136" style="stop-color:#67E821"/>
		<stop  offset="0.678" style="stop-color:#85E22A"/>
		<stop  offset="0.7456" style="stop-color:#9DDC32"/>
		<stop  offset="0.8177" style="stop-color:#ADD937"/>
		<stop  offset="0.8975" style="stop-color:#B7D73A"/>
		<stop  offset="1" style="stop-color:#BAD63B"/>
	</linearGradient>
	<path style="fill:url(#SVGID_00000106106657455942338440000011772535215482822529_);" d="M1679,1118.4c-1.2-1.2-11.7-12.1-7.4-23
		c2.4-6,8.9-11,15.1-10.9c6.2,0.1,8.6,5.1,14.8,4.1c5-0.8,8-4.9,8.2-5.2c5.8-8.1-2.6-18.5,2-23.3c3.7-4,14.5-2.2,20.3,3.5
		c7.3,7.1,5.4,18.7,4.1,27.1c-1.6,10-4,24.8-17.2,32.4C1706.4,1130.2,1688.9,1128.4,1679,1118.4z"/>
	<path class="st17" d="M1336,1129.1c0.3-0.1-12.1-17.2-8.9-37.8c0.6-4.1,1.9-12.1,8.1-18.3c8.9-9,24.4-10.7,39.5-4.7
		c0.5-2,2-6.2,5.9-9.4c6-4.8,14.2-4.1,19.2-2c10.8,4.6,13.3,19.3,14.8,28.4c2.9,17.4-1.2,32.5-5.2,42.3c4.9-6.4,14.1-20.6,15.4-40.3
		c1.3-20.3-5.5-52.1-32.4-65.3c-17.1-8.3-41.6-8.9-58.4,5.2c-18.1,15.3-17.3,39.5-16.9,51.3
		C1318.1,1109.1,1335.7,1129.3,1336,1129.1z"/>
	<path class="st18" d="M1677.1,1127.1c-8.8-15.5-11.4-28.9-12.3-37.1c-1.5-14,1.4-18.4,2.9-20.3c6.3-7.6,18.1-6.5,20.4-6.3
		c3.5-4.4,9.5-10.6,18.1-13.9c4.6-1.8,7.2-1.7,8.6-1.5c4.9,0.6,6.3,3.3,11.2,5.7c7.9,3.8,11.6,0.4,16.6,3.3
		c4.2,2.4,6.5,7.7,7.7,20.4c1,9.8,1.5,24.7-1.9,43.3c5.4-10.7,11.1-26.1,11.7-44.9c0.3-9.2,0.5-21.3-5.5-35
		c-3.2-7.2-10-22.5-25.2-29.2c-23-10.1-53.6,5.3-65.2,25.7c-4.2,7.4-5.4,14.4-7,24c-1.7,10.4-4,23.9,1.3,39.1
		C1663,1113,1671,1121.7,1677.1,1127.1z"/>
	<path class="st9" d="M1305.1,1131.7c-0.9,0.8-14.7-9.5-26.6-27.2c-9.4-14.2-11.3-23.6-21.7-29c-6.6-3.4-13.4-3.5-17.8-3.1
		c3.7-2.3,8.5-5.3,14.1-9c8.1-5.3,9.9-6.9,10.3-9.2c0.9-6-9.2-11.8-10.7-12.6c2.9,1.3,9.5,3.8,16.4,1.4c3.3-1.2,5.5-3.1,8.8-5.9
		c6.2-5.5,5.5-7.6,11.2-12.4c4.9-4.2,8.1-4.8,8-7.1c-0.1-2.3-3.4-3-7.6-6.7c-3.4-3-5.4-6.3-6.5-8.7c3.5,1.9,10,4.9,18.7,5.6
		c9.6,0.7,17.1-1.8,20.9-3.4c10.6-2.7,27.5-5.3,47.3-1.2c44.2,9.2,67.4,44.6,72.3,52.4c-3.2-3.2-8-7.7-14.4-12.6
		c-1.2-0.9-10.9-8.1-11.7-7.2c-0.7,0.8,5.4,6.4,11.1,13.5c4.9,6.1,11,15.3,16.1,28.3c-2.6-3.3-6.4-8-11.4-13.5
		c-12.8-14.1-23.7-26.1-36.8-33c-31.7-16.7-69,0.2-75.5,3.2c-11.3,5.1-27.1,12.3-33.5,28.8c-4.9,12.6-2,24.8-0.5,31.3
		C1290.8,1117.4,1306.2,1130.8,1305.1,1131.7z"/>
	<path class="st9" d="M1635.9,1045.5c-0.6-0.7,28.2-39.8,68.6-51.5c29.7-8.5,58.1-0.1,76.7,8c2.1-0.1,4.7-0.5,7.7-1.4
		c5-1.6,8.5-4.3,10.6-6.1c-0.1,2.7-0.8,6.5-3.3,10c-3.7,5-8.3,5-8.8,8.4c-0.7,4.2,5.7,8.6,8.3,10.4c4.5,3.1,8.7,4,9.8,4.3
		c9.7,2.1,17.8-1.9,20.6-3.4c-0.4,1.6-1.3,3.8-3.2,5.6c-5.3,5.3-13.4,2.8-14.4,5.6c-1,2.8,6.5,7.9,9.1,9.7
		c4.7,3.2,11.2,6.7,19.7,9.2c-3.6,3.1-8.6,7.6-14.2,13.3c-6.5,6.6-11.7,12.7-15.1,16.9c-11.4,14-12.8,18.7-21.4,25.6
		c-4.6,3.7-8.7,6.1-11.4,7.4c4.1-3.9,14.8-14.9,18.4-32.8c1-4.9,4.4-23.1-5.7-40c-12.4-20.7-36.3-24.8-49-27.1
		c-3.7-0.6-36-5.8-64.3,12c-11.5,7.2-21.6,17.8-26.6,23.1c-6.7,7-11.8,13.4-15.3,18.1c2.3-6.1,6.1-14.8,12.8-23.8
		c9.5-12.9,20.2-20.4,19.7-21.1c-0.5-0.6-8.4,4.9-17.8,11.5C1637.3,1044.4,1636,1045.6,1635.9,1045.5z"/>
	<path class="st8" d="M1802.7,1269.1c8.5,1.7,22.1,3,35.9-3c5.4-2.3,9.5-5.2,25-20.4c18.1-17.7,27.1-26.5,34.6-36.4
		c11.1-14.5,18.5-24.3,23.1-38.9c2.8-9,7.5-29-0.4-56.2"/>
	<path class="st9" d="M1711.6,1140c0,0.5,3.1,0.3,8.9,1.6c2.5,0.6,4.7,1.2,6.7,1.8c6.1,1.8,7.9,2.7,8.6,1.9c0.7-0.8-0.1-3.1-1.4-4.5
		c-1.1-1.2-3.1-2.4-10.9-2.3C1717.9,1138.6,1711.5,1139.4,1711.6,1140z"/>
	<path class="st9" d="M1746.8,1133.6c-0.1-0.9,5.4-3.2,10.7-1.7c5.6,1.6,9.1,6.8,8.6,7.5c-0.4,0.6-3-1.6-8.8-3.5
		C1750.8,1133.8,1746.8,1134.4,1746.8,1133.6z"/>
	<path class="st9" d="M1769.2,1123.7c-0.1-0.4,0.4-0.7,1.9-2.7c1.6-2.2,1.7-2.9,2.5-3.1c1-0.3,1.8,0.8,3.7,2.1c3.7,2.8,5.3,2,8.9,5
		c0.2,0.2,2.8,2.4,2.5,2.9c-0.4,0.6-4.4-2.7-10.7-3.6C1773.3,1123.8,1769.5,1124.8,1769.2,1123.7z"/>
	<path class="st9" d="M1310,1136.5c-0.1-0.6-3.1-1.2-5.6,0c-3.7,1.6-5.1,6.4-4.6,6.7c0.4,0.3,1.7-2.1,5.5-4.3
		C1308.1,1137.2,1310.1,1136.9,1310,1136.5z"/>
	<path class="st9" d="M1315.8,1153.3c-0.6-0.5,1.9-6.3,7.2-8.9c5.5-2.6,11.8-0.8,11.9,0c0,0.6-4.5,0.2-10.3,2.9
		C1318.8,1150.1,1316.3,1153.8,1315.8,1153.3z"/>
	<path class="st9" d="M1357,1149.7c0-0.7-4.4-1.3-8.5-1c-3.9,0.3-5.5,1.2-6.4,1.9c-0.6,0.5-2.5,2-2.1,3.7c0.3,1.7,2.9,2.8,4.6,2.3
		c1.4-0.4,1.6-1.7,2.8-3.1C1350.7,1149.5,1357,1150.5,1357,1149.7z"/>
	<path class="st9" d="M1383,1105.5c-3.5,1.8-7,0.9-7.5,0.8c-9.3-2.4-12-17.3-12.7-21.1c-2.7-14.7,1.1-34.3,11.1-37.4
		c0.7-0.2,2.4-0.7,4.3-0.2c10.9,2.5,12,28.7,12,31.8C1390.5,1087.1,1390.9,1101.4,1383,1105.5z"/>
	<path class="st9" d="M1702.2,1101c-11.5-2.3-13.9-25.8-14.1-27.3c-1.3-13.5,2.6-31.4,12-34.3c0.7-0.2,1.7-0.5,3.1-0.4
		c8.9,1.1,12.9,21.3,13.9,31.1c0.9,8.9,2.3,22.9-6,28.7C1710.2,1099.4,1706.5,1101.9,1702.2,1101z"/>
	<path class="st12" d="M1363.2,1069.4c-3,0.9-6.2-0.7-7.8-2.9c-2.9-4.1-0.4-10.5,3.5-12.8c0.5-0.3,2.8-1.7,5.1-0.9
		c3.3,1,4.5,5.5,4.4,8.5C1368.4,1061.5,1368,1068.1,1363.2,1069.4z"/>
	<path class="st12" d="M1355.9,1056.6c-0.3,0.1-4.9,2.2-8.8-0.3c-4-2.6-5.4-8.7-2.6-13.1c2.1-3.2,6.3-5,10.4-3.8
		c3.9,1.2,6.6,4.9,6.5,8.9C1361.4,1052.3,1358.8,1055.3,1355.9,1056.6z"/>
	<path class="st12" d="M1699.1,1057c-2.1,2.2-5.7,3.3-8.8,1.7c-2.7-1.3-4.4-4.3-4.1-7.3c0.3-3.5,3.1-6.3,6.6-6.7
		c3.6-0.4,7.1,1.9,8,5.2C1702,1053.8,1699.2,1056.9,1699.1,1057z"/>
	<path class="st12" d="M1688.9,1051.2c-2.8,2.3-7.5,2.1-10.6-0.1c-4.7-3.3-5.3-10.8-1.5-14.8c2.2-2.4,6.1-3.6,9.1-2.4
		C1691.8,1036.2,1693.8,1047.2,1688.9,1051.2z"/>
	<path class="st12" d="M1683.5,1062.8c-1.8-0.4-2.8-2.2-2.9-3.7c-0.2-2.4,1.9-4.9,4.1-4.8c2.3,0.2,4.1,3.3,3.3,5.7
		C1687.4,1061.8,1685.4,1063.3,1683.5,1062.8z"/>
</g>
<g id="Layer_17">
	<path class="st8" d="M1442.7,1437.4c0.5,13.5,1,27.1,1.5,40.6c4.5,4.6,54.2,54.5,125.2,42.8c56.5-9.3,86.8-51,92.5-59.1
		c-0.2-11.5-0.3-22.9-0.5-34.4"/>
	<path class="st8" d="M1444.2,1478c-7.6,12.9-15.1,25.9-22.7,38.8c8.8,9.8,50.7,54.5,119.7,59.3c85.1,5.8,139.5-54,145.9-61.3
		c-8.4-17.7-16.8-35.4-25.3-53.1"/>
	<path class="st8" d="M1687.1,1514.8c11.2,4.4,23.7,8.6,37.5,12.4c11.2,3,21.9,5.3,31.7,7.1"/>
	<path class="st8" d="M1231.7,1557.4c9.5-1,19.1-2,28.7-2.9c13.2-1.3,26.2-2.4,39.1-3.5"/>
	<path class="st8" d="M1362.9,1525.2c4.2-0.7,8.6-1.6,13.2-2.8c8.2-2.1,15.4-4.7,21.8-7.3"/>
	<g>
		<path class="st9" d="M1289,1586.9c19.7,5,39.5,9.7,59.4,13.9c10,2.1,19.9,4,29.9,5.7c5,0.9,10,1.7,15,2.4c5,0.8,10.1,1.4,15.1,2.2
			c10.1,1.7,20.1,3.8,30,5.8c5,1,10,2,15,2.8c5,0.9,10,1.5,15.1,2.4c5,0.9,10.1,1.9,15,3.4c4.9,1.5,9.7,3.3,14.4,5.6
			c9.2,4.5,17.8,10.3,25.2,17.3c-3.9-3.2-8.1-6.2-12.3-8.9c-4.3-2.7-8.8-5-13.4-7.1c-4.6-2-9.4-3.7-14.3-5c-4.9-1.3-9.8-2.2-14.8-3
			c-5-0.7-10.1-1.3-15.1-2.1c-5-0.8-10.1-1.7-15.1-2.6c-10-1.9-20-4-30-5.6c-5-0.9-10-1.5-15.1-2.3c-5-0.8-10.1-1.6-15.1-2.5
			c-10-1.9-20-3.9-30-6.2C1328.1,1598.5,1308.5,1593,1289,1586.9z"/>
	</g>
	<g>
		<path class="st9" d="M1598.3,1647.6c14.6-7.3,29.7-13.5,45.2-18.6c7.7-2.6,15.6-4.8,23.5-6.8c7.9-2,15.9-3.7,23.8-5.4
			c15.9-3.3,31.7-6.8,47.5-10.9c7.9-2,15.7-4.2,23.5-6.4c7.8-2.2,15.6-4.6,23.4-7c-15.2,5.9-30.6,11.2-46.2,15.6
			c-7.8,2.3-15.7,4.3-23.6,6.3c-7.9,1.9-15.9,3.6-23.8,5.3c-15.9,3.2-31.7,6.7-47.3,11.5c-7.8,2.3-15.5,4.9-23.1,7.6
			C1613.4,1641.6,1605.9,1644.6,1598.3,1647.6z"/>
	</g>
	<path class="st8" d="M1854,1559.9c7.6,39.1,14.6,80.1,20.8,122.9c5,34.9,9.2,68.8,12.6,101.7c-48.8,22.3-89.3,44.3-120.7,62.8
		c-37.8,22.2-56.7,33.3-75.5,47.9c-28.6,22.3-60.1,41.1-86.5,66c-5.6,5.3-15.3,14.7-29.7,16.4c-19.8,2.4-36.3-11.2-41.9-15.7
		c-45.4-36.1-102.5-54.8-150.4-87.4c-33.3-22.7-82.3-54.4-146.2-90.2c9.1-38.8,18-78.3,26.6-118.6c8.2-38.4,15.9-76.2,23.1-113.5"/>
	<path class="st8" d="M1254.7,1555c-0.8,5.7-1.6,11.3-2.5,17"/>
	<g>
		<path class="st9" d="M1253.1,1581.7c-11.2,34.8-20.6,70.2-27.8,106c-3.7,17.9-6.3,36-10.4,54c-4.1,17.9-9.8,35.5-17,52.4
			c-3.6,8.5-7.6,16.8-12,24.9c-4.3,8.1-9,16-13.4,24c-4.4,8-8.7,16-12.8,24.2c-2.1,4.1-4,8.2-6,12.3l-2.8,6.2l-1.4,3.1l-1.3,3.1
			c-7.2,16.7-13.4,33.9-18.1,51.5c-4.7,17.6-7.9,35.6-9.2,53.7c-1.3,18.1-1,36.4,1.4,54.5c1.2,9,2.9,18,5,26.8
			c1.2,4.4,2.2,8.8,3.6,13.1l1,3.3c0.3,1.1,0.7,2.2,1.1,3.2l2.3,6.4c0.7,2.2,1.6,4.2,2.5,6.4l2.6,6.3l2.9,6.2c1,2.1,1.9,4.1,3,6.1
			c2.1,4,4.2,8.1,6.5,12c2.3,4,4.6,7.8,7.1,11.7c9.8,15.3,21.5,29.5,34.8,41.8l2.5,2.3l2.6,2.2c1.7,1.5,3.4,3,5.2,4.4
			c1.8,1.4,3.6,2.8,5.3,4.2l5.5,4c7.5,5.2,15.2,9.9,23.3,14c16.2,8.2,33.6,14.1,51.4,17.8c17.8,3.7,36.1,5.1,54.3,4.7
			c9.1-0.2,18.2-0.9,27.2-2c9-1.1,18-2.7,26.9-4.8l-0.1,0c11.7-4,23.6-7.5,35.6-10.6c12-3.1,24.1-5.8,36.3-8
			c6.1-1.1,12.2-2.1,18.3-2.9c6.1-0.9,12.3-1.6,18.4-2.3c6.2-0.6,12.3-1.1,18.5-1.5c6.2-0.4,12.4-0.7,18.5-0.8
			c-12.3,0.9-24.6,2-36.9,3.6c-6.1,0.8-12.2,1.7-18.3,2.7c-6.1,1-12.2,2.1-18.2,3.3c-12.1,2.4-24.1,5.1-36.1,8.3
			c-11.9,3.2-23.7,6.8-35.4,10.8l-0.1,0l-0.1,0c-9,2.1-18,3.8-27.2,4.9c-9.1,1.2-18.3,1.9-27.5,2.1c-18.4,0.4-36.9-1-54.9-4.7
			c-18-3.7-35.6-9.7-52.1-18c-8.2-4.2-16.1-9-23.7-14.2l-5.6-4c-1.8-1.4-3.6-2.9-5.4-4.3c-1.8-1.4-3.5-3-5.3-4.4l-2.6-2.3l-2.5-2.4
			c-13.5-12.5-25.3-26.9-35.3-42.4c-2.5-3.9-4.9-7.8-7.2-11.8c-2.3-4-4.4-8.1-6.5-12.2c-1.1-2-2-4.1-3-6.2l-2.9-6.3l-2.6-6.4
			c-0.9-2.1-1.8-4.3-2.5-6.4l-2.3-6.5c-0.4-1.1-0.7-2.2-1.1-3.3l-1-3.3c-1.4-4.4-2.5-8.9-3.7-13.3c-2.1-9-3.9-18-5.1-27.1
			c-2.4-18.3-2.8-36.8-1.4-55.1c1.3-18.4,4.5-36.6,9.3-54.4c4.7-17.8,11-35.1,18.2-52l1.4-3.2l1.4-3.1l2.9-6.3c2-4.1,3.9-8.3,6-12.4
			c4.1-8.2,8.5-16.3,12.9-24.3c4.4-8.1,9-15.9,13.3-24c4.3-8,8.3-16.2,11.8-24.6c7.1-16.7,12.8-34.1,16.9-51.8
			c4.1-17.7,6.8-35.9,10.5-53.8c7.3-35.9,16.8-71.4,28.1-106.3L1253.1,1581.7z"/>
	</g>
	<g>
		<path class="st9" d="M1610.6,2216.2c15.7,1.3,31.4,3.6,46.8,6.9c7.7,1.7,15.4,3.5,23,5.6c7.6,2.1,15.2,4.4,22.6,7
			c3.7,1.3,7.5,2.6,11.2,4l5.5,2c1.8,0.7,3.7,1.2,5.6,1.9c1.9,0.6,3.7,1.2,5.6,1.7l5.6,1.6c3.8,0.9,7.6,1.9,11.4,2.6
			c15.3,3.1,31,4.4,46.7,4.5c7.8-0.1,15.7-0.3,23.4-1.1l2.9-0.3l2.9-0.4c1.9-0.3,3.9-0.5,5.8-0.8c3.8-0.7,7.7-1.2,11.5-2.1
			c3.8-0.7,7.6-1.8,11.4-2.8c3.7-1.2,7.5-2.3,11.1-3.7c3.7-1.3,7.2-2.9,10.8-4.4c3.5-1.7,7-3.3,10.4-5.3c13.7-7.4,26.3-17,37.6-27.6
			c11.3-10.8,21.5-22.8,30.5-35.6c9-12.8,16.9-26.4,23.6-40.5c1.7-3.5,3.3-7.1,4.8-10.7c1.6-3.6,3-7.2,4.4-10.9
			c2.7-7.3,5-14.8,7-22.4c4-15.1,6.3-30.7,7.3-46.3c1-15.6,0.5-31.3-1.2-46.9c-1.7-15.6-4.5-31-8-46.4c-0.9-3.8-1.7-7.7-2.7-11.5
			l-1.4-5.7c-0.5-1.9-1-3.8-1.5-5.7c-0.5-1.9-1-3.8-1.6-5.7l-1.7-5.6c-1.1-3.8-2.5-7.4-3.7-11.2c-0.6-1.9-1.3-3.7-2-5.5
			c-0.7-1.8-1.3-3.7-2.1-5.5c-1.5-3.6-2.9-7.3-4.5-10.9c-3-7.2-6.4-14.3-10-21.3c-7.1-14-15.1-27.5-24-40.4l0,0l-0.2-0.3l-0.1-0.3
			l-10.5-62.8l-11.7-62.6l-5.9-31.3l-6.1-31.3l-12.1-62.5l2.9-0.6l12.1,62.5l6.1,31.3l5.9,31.3l11.7,62.6l10.5,62.9l-0.2-0.6l0,0
			c9,13,17.1,26.6,24.4,40.7c3.6,7.1,7,14.2,10.1,21.5c1.6,3.6,3,7.3,4.5,11c0.7,1.8,1.4,3.7,2.1,5.6c0.7,1.9,1.4,3.7,2,5.6
			c1.3,3.8,2.6,7.5,3.8,11.3l1.8,5.7c0.6,1.9,1.1,3.8,1.6,5.7c0.5,1.9,1.1,3.8,1.6,5.7l1.4,5.8c1,3.8,1.8,7.7,2.7,11.5
			c3.5,15.4,6.4,31,8.1,46.8c1.7,15.8,2.2,31.7,1.2,47.5c-1,15.8-3.4,31.6-7.4,47c-2,7.7-4.4,15.3-7.1,22.7c-1.4,3.7-2.8,7.4-4.4,11
			c-1.5,3.7-3.2,7.3-4.9,10.8c-6.8,14.3-14.8,28.1-23.9,41.1c-9.1,13-19.5,25.1-31,36c-11.6,10.8-24.4,20.5-38.4,28.1
			c-3.5,2-7.1,3.6-10.7,5.4c-3.7,1.6-7.3,3.2-11.1,4.5c-3.7,1.5-7.5,2.5-11.3,3.7c-3.9,1-7.7,2.1-11.6,2.8
			c-3.9,0.9-7.8,1.5-11.7,2.1c-2,0.3-3.9,0.5-5.9,0.8l-3,0.4l-3,0.3c-7.9,0.8-15.8,1-23.8,1.1c-15.9-0.1-31.7-1.5-47.3-4.7
			c-3.9-0.7-7.7-1.7-11.6-2.6l-5.7-1.6c-1.9-0.5-3.8-1.1-5.7-1.8c-1.9-0.6-3.8-1.2-5.6-1.9l-5.5-2c-3.7-1.4-7.4-2.7-11.1-4
			C1672.5,2228.2,1641.8,2221,1610.6,2216.2z"/>
	</g>
	<g>
		<path class="st9" d="M1502.3,2138.6c6.7-1.7,13.4-3.1,20.2-4.4c6.8-1.2,13.6-2.2,20.5-3c6.9-0.8,13.8-1.3,20.6-1.7
			c6.9-0.3,13.8-0.4,20.7-0.4c13.8,0.2,27.6,1.3,41.3,3.2c6.8,1,13.6,2.2,20.4,3.6c6.7,1.5,13.5,3,20.1,4.9
			c-13.5-2.6-27.1-4.7-40.8-6.2c-6.8-0.7-13.7-1.3-20.5-1.7c-6.8-0.4-13.7-0.7-20.5-0.8c-13.7-0.2-27.4,0.3-41.1,1.3
			C1529.6,2134.7,1515.9,2136.4,1502.3,2138.6z"/>
	</g>
	<g>
		<path class="st9" d="M1558.6,1976c0-7.6,0.4-15.3,1.2-22.9c0.8-7.6,2.1-15.2,3.7-22.7c1.6-7.5,3.7-14.9,6.1-22.2
			c2.4-7.3,5.3-14.4,8.4-21.4c6.4-14,14.2-27.3,23.3-39.7c4.6-6.2,9.5-12.1,14.6-17.7l4-4.2c1.4-1.4,2.7-2.7,4.1-4.1
			c2.7-2.7,5.6-5.3,8.4-7.8c-10.7,10.9-20.5,22.6-29.2,35.1c-4.3,6.2-8.4,12.7-12.1,19.3c-3.7,6.6-7.3,13.3-10.3,20.3
			c-6.3,13.8-11.3,28.2-15,42.9C1562.2,1945.7,1559.8,1960.8,1558.6,1976z"/>
	</g>
	<g>
		<path class="st9" d="M1176,1833.2c-0.4-6.1-0.6-12.3-0.6-18.4c0-6.1,0-12.3,0.2-18.4l0.5-9.2c0.2-3.1,0.4-6.1,0.7-9.2
			c0.5-6.1,1.2-12.2,2.1-18.3c0.3,6.2,0.3,12.3,0.2,18.4c0,3.1-0.1,6.1-0.2,9.2l-0.4,9.2l-0.4,9.2c-0.2,3.1-0.3,6.1-0.5,9.2
			C1177.3,1821,1176.8,1827.1,1176,1833.2z"/>
	</g>
	<g>
		<path class="st9" d="M1940.8,1821.1c-0.3-7.6-0.4-15.1-0.6-22.7l-0.3-11.3c-0.1-3.8-0.2-7.5-0.3-11.3c-0.1-3.8-0.2-7.5-0.4-11.3
			l-0.4-11.3c-0.3-7.5-0.7-15.1-0.8-22.7c1.4,7.4,2.4,15,3.2,22.5c0.4,3.8,0.7,7.5,0.9,11.3c0.2,3.8,0.4,7.6,0.5,11.3
			c0.1,3.8,0.2,7.6,0.2,11.4c0,3.8-0.1,7.6-0.2,11.4C1942.3,1806,1941.7,1813.6,1940.8,1821.1z"/>
	</g>
	<path class="st8" d="M1181.9,2184.9c35.8,94.4,71.6,188.8,107.4,283.2c-3.2,2.5-7.2,6.4-8.9,12.1c-2.1,7.4,0.8,13.7,1.9,17.5
		c2.9,10-1.2,20.5-14.6,42.9c-22.7,37.9-35.9,55.6-45.9,66.1c-22,23.2-52.5,65.3-88.3,148.2"/>
	<path class="st8" d="M1922,2208.5c-3.8,50.2-12.3,89.6-19.6,117c-8.3,30.9-16.7,52.4-27.5,97.5c-6.7,27.8-11,50.9-13.6,66.4
		c7,0.2,13.2,4.6,15.8,11.1c2.6,6.5,1.1,14-3.9,19c0.9,12.5,1.9,25,2.8,37.5c14.2,22,32.3,51.5,51.9,87.1
		c17.8,32.3,48.9,89.2,78.9,167c19.1,49.6,40.3,114.2,56.4,191.8"/>
	<path class="st8" d="M1042.9,3000c6.7-30,15.4-62.1,26.7-95.9c21.2-63.7,46.8-118.3,71.7-163.4"/>
	<g>
		<path class="st9" d="M1749.1,2585.8c10.7-4.8,21.1-9.9,31.2-15.5c10.1-5.7,20-11.8,29.4-18.6c4.7-3.3,9.4-6.8,13.9-10.4
			c4.6-3.6,9-7.3,13.3-11.2c8.7-7.7,17-15.9,25-24.3c-7.1,9.3-14.9,18-23.4,26.1c-4.2,4.1-8.6,7.9-13.1,11.7
			c-4.5,3.7-9.2,7.3-14,10.7c-4.8,3.4-9.7,6.6-14.7,9.6c-5,3-10.1,5.9-15.3,8.5C1771,2577.7,1760.2,2582.2,1749.1,2585.8z"/>
	</g>
	<path class="st8" d="M1789.2,1542.4c31.2,8.5,65.2,16.4,101.9,23c29.9,5.4,58.3,9.3,85.1,12.2c18.3-1.5,68.4-3.2,109,29.9
		c37.4,30.5,46.3,74,55.2,117.4c10.2,49.8,7.7,89,3.5,137.3c-12.4,143-22.3,197.2-22.3,197.2c-18.7,131.8-57.6,290.3-138.1,456.3
		c-20,41.3-41.1,79.9-62.6,115.8"/>
	<path class="st8" d="M1134.8,1570.2c-15,3.5-36.3,10.2-59.2,23.5c-8.3,4.8-60.2,35.7-89.2,97c-18.7,39.5-24.7,72.9-17.6,138.5
		c10.2,95.4,6.5,148.5,27,253.6c46.6,239.2,200.3,526.4,209.5,543.4"/>
</g>
<g id="Layer_14">
	<path class="st19" d="M1494.2,1306.8c-1.6,1.4-5.4,4.9-5.6,9.7c-0.5,9.5,12.9,19.4,25.8,22.1c12.9,2.7,14.6-4.2,33.3-3.4
		c13.7,0.6,16.3,4.4,29.1,2.9c5.9-0.7,14.3-1.8,20.6-8.4c1.5-1.6,6.3-6.6,6.5-14.2c0.1-5.1-1.9-10.2-4.8-13.2
		c-7.4-7.6-20-0.6-42.3,1.3C1523.7,1306.4,1507.5,1294.9,1494.2,1306.8z"/>
	<path class="st20" d="M1476.1,1305.6c-0.1,1.3,4.2,2.6,6.4,3.3c3.6,1.1,6.5,1.3,7.3,1.3c9.4,0.6,17.1,0.3,17.1,0.3
		c12.3-0.5,10.5-0.8,16-0.8c7.5,0,12.4,0.6,12.7-0.5c0.2-0.8-1.8-2-3-2.6c-2.1-0.9-4.1-0.7-4.6-0.7c-6.5,0.6-13,0.3-19.4,0.7
		c-10.2,0.6-15.3,0.9-19.4-1.4c-0.5-0.3-1.8-1-3.6-1.5C1481.1,1302.8,1476.2,1304.2,1476.1,1305.6z"/>
	<path class="st20" d="M1558.1,1307c0-0.6,7.4-1.2,15.8-2c9.1-0.8,13.6-1.1,17.3-1.1c4.4,0,8.8-0.4,13.1-0.4c1,0,2.3,0,4-0.4
		c2.4-0.6,2.8-1.5,5-2c0.3-0.1,4.3-1,5,0.3c0.6,1-0.8,2.9-1.8,3.8c-2.6,2.7-6.3,3-8.1,3.2c-9.5,0.8-17.6,0.5-19.1,0.5
		c-8.8-0.3-7.3-0.1-14.3-0.4C1566.1,1308,1558.1,1307.6,1558.1,1307z"/>
	<path class="st21" d="M1527.5,1331.1c-2.3,0.1-7.1-0.5-8-3.6c-0.9-3.1,2.9-7,6-7.3c0.5,0,0.4,0.1,2.7,0.4c4.3,0.6,5,0.3,5.9,1
		c1.4,1.1,1.9,3.3,1.4,5.1C1534.6,1330,1530,1331,1527.5,1331.1z"/>
	<path class="st21" d="M1562.7,1328.1c-3,0.6-6.4,1.2-8.3-0.9c-1.2-1.2-1.3-2.8-1.4-3.4c0-0.4-0.3-3.3,1.5-4.7
		c0.9-0.7,1.6-0.5,5.4-0.2c5.4,0.4,6.1,0.1,7.1,0.9c1.5,1.2,2.5,3.7,1.7,5.5C1567.9,1327.2,1565.7,1327.6,1562.7,1328.1z"/>
	<path class="st20" d="M1530.9,1353.9c0.1-0.6,4.8,0.3,14.4,0.1c10.2-0.2,15.4-1.5,15.6-0.9c0.2,0.7-6.6,3.8-14.7,4
		C1537.9,1357.4,1530.8,1354.6,1530.9,1353.9z"/>
</g>
</svg>
